<svg width="587" height="39" viewBox="0 0 587 39" fill="none" xmlns="http://www.w3.org/2000/svg">
<path d="M2.005 22.608V24.592H26.965V22.608C26.965 21.456 26.8583 20.3893 26.645 19.408C26.4743 18.4267 26.2397 17.5093 25.941 16.656L21.525 6.224C21.0557 5.11466 20.565 4.19733 20.053 3.472C19.541 2.704 18.6877 2.32 17.493 2.32H11.221C9.941 2.32 9.045 2.704 8.533 3.472C8.021 4.19733 7.55167 5.09333 7.125 6.16L3.029 16.656C2.73033 17.5093 2.47433 18.4267 2.261 19.408C2.09033 20.3893 2.005 21.456 2.005 22.608ZM26.965 36.24V25.232H2.005V36.24H1.365V22.608C1.365 21.4133 1.45033 20.3253 1.621 19.344C1.83433 18.32 2.11167 17.3387 2.453 16.4L6.549 5.904C7.01833 4.70933 7.55167 3.70667 8.149 2.896C8.74633 2.08533 9.77033 1.68 11.221 1.68H17.493C18.901 1.68 19.8823 2.08533 20.437 2.896C21.0343 3.70667 21.589 4.73067 22.101 5.968L26.517 16.4C26.8583 17.3387 27.1143 18.32 27.285 19.344C27.4983 20.3253 27.605 21.4133 27.605 22.608V36.24H26.965ZM70.131 1.68H70.771V28.368C70.771 30.8853 69.9603 32.9547 68.339 34.576C66.7603 36.1973 63.7097 37.008 59.187 37.008C56.7977 37.008 54.8137 36.7947 53.235 36.368C51.699 35.9413 50.483 35.3653 49.587 34.64C48.691 33.872 48.051 32.9547 47.667 31.888C47.3257 30.8213 47.155 29.648 47.155 28.368V23.312H47.795V28.368C47.795 30.8 48.5843 32.7413 50.163 34.192C51.7843 35.6427 54.7923 36.368 59.187 36.368C63.411 36.368 66.291 35.6427 67.827 34.192C69.363 32.6987 70.131 30.7573 70.131 28.368V1.68ZM98.5135 2.64V10.256C98.5135 12.2187 98.0015 13.6907 96.9775 14.672C95.9535 15.6107 94.5882 16.08 92.8815 16.08H89.9375V15.44H92.8815C94.4175 15.44 95.6335 15.0133 96.5295 14.16C97.4255 13.264 97.8735 11.9627 97.8735 10.256V3.28H89.9375V2.64H98.5135ZM136.851 1.68V2.32H122.643C120.851 2.32 119.422 2.81067 118.355 3.792C117.288 4.77333 116.755 6.01067 116.755 7.504V12.752C116.755 14.2453 117.054 15.2907 117.651 15.888C118.248 16.4853 119.038 16.8693 120.019 17.04L133.523 19.792C134.803 20.048 135.848 20.6027 136.659 21.456C137.512 22.3093 137.939 23.8453 137.939 26.064V29.776C137.939 31.6533 137.299 33.2107 136.019 34.448C134.739 35.6427 133.011 36.24 130.835 36.24H114.899V35.6H130.835C132.798 35.6 134.355 35.0667 135.507 34C136.702 32.8907 137.299 31.4827 137.299 29.776V26.064C137.299 24.0587 136.936 22.6933 136.211 21.968C135.528 21.2 134.59 20.688 133.395 20.432L119.891 17.68C118.782 17.4667 117.864 17.04 117.139 16.4C116.456 15.7173 116.115 14.5013 116.115 12.752V7.504C116.115 5.79733 116.712 4.41066 117.907 3.344C119.102 2.23466 120.68 1.68 122.643 1.68H136.851ZM194.835 35.6V36.24H173.267V1.68H194.835V2.32H173.907V18.384H189.651V19.024H173.907V35.6H194.835ZM215.078 33.36V36.24H214.438V33.36C214.438 32.4213 214.459 31.5467 214.502 30.736C214.587 29.8827 214.886 29.1147 215.398 28.432L223.078 17.936L215.398 7.568C214.929 6.88533 214.651 6.13867 214.566 5.328C214.481 4.47466 214.438 3.57866 214.438 2.64V1.68H215.078V2.64C215.078 3.536 215.121 4.38933 215.206 5.2C215.291 6.01066 215.547 6.71466 215.974 7.312L223.654 17.68H231.27L238.694 7.312C239.121 6.71466 239.377 6.01066 239.462 5.2C239.547 4.38933 239.59 3.536 239.59 2.64V1.68H240.23V2.64C240.23 3.57866 240.187 4.47466 240.102 5.328C240.017 6.13867 239.739 6.88533 239.27 7.568L231.718 18.064L239.27 28.432C239.739 29.1147 240.017 29.8827 240.102 30.736C240.187 31.5467 240.23 32.4213 240.23 33.36V36.24H239.59V33.36C239.59 32.464 239.547 31.6107 239.462 30.8C239.377 29.9893 239.121 29.2853 238.694 28.688L231.206 18.32H223.526L215.974 28.688C215.547 29.2427 215.291 29.9467 215.206 30.8C215.121 31.6107 215.078 32.464 215.078 33.36ZM276.346 23.632H263.162V36.24H262.522V1.68H276.346C278.351 1.68 279.972 1.91466 281.21 2.384C282.49 2.81067 283.471 3.408 284.154 4.176C284.836 4.944 285.306 5.86133 285.562 6.928C285.818 7.99467 285.946 9.14667 285.946 10.384V15.12C285.946 16.3573 285.818 17.5093 285.562 18.576C285.306 19.6 284.836 20.496 284.154 21.264C283.471 21.9893 282.49 22.5653 281.21 22.992C279.972 23.4187 278.351 23.632 276.346 23.632ZM263.162 22.992H276.346C278.223 22.992 279.738 22.8 280.89 22.416C282.084 22.032 283.002 21.4987 283.642 20.816C284.282 20.0907 284.708 19.2587 284.922 18.32C285.178 17.3387 285.306 16.272 285.306 15.12V10.384C285.306 9.232 285.178 8.16533 284.922 7.184C284.708 6.20266 284.282 5.34933 283.642 4.624C283.002 3.89867 282.084 3.344 280.89 2.96C279.738 2.53333 278.223 2.32 276.346 2.32H263.162V22.992ZM327.523 35.6V36.24H305.955V1.68H327.523V2.32H306.595V18.384H322.339V19.024H306.595V35.6H327.523ZM362.358 2.32H348.406V20.816H362.358C365.003 20.816 366.774 20.176 367.67 18.896C368.566 17.616 369.014 15.8027 369.014 13.456V8.976C369.014 7.01333 368.459 5.41333 367.35 4.176C366.283 2.93867 364.619 2.32 362.358 2.32ZM348.406 36.24H347.766V1.68H362.358C364.832 1.68 366.667 2.384 367.862 3.792C369.056 5.15733 369.654 6.88533 369.654 8.976V13.392C369.654 15.3547 369.398 16.976 368.886 18.256C368.374 19.4933 367.35 20.3467 365.814 20.816H366.518C369.12 20.816 371.062 21.4133 372.342 22.608C373.622 23.76 374.262 25.4453 374.262 27.664V36.24H373.622V27.664C373.622 25.5733 373.046 24.016 371.894 22.992C370.742 21.9253 368.95 21.392 366.518 21.392H348.406V36.24ZM413.504 36.24H393.152V35.6H403.072V2.32H393.152V1.68H413.504V2.32H403.712V35.6H413.504V36.24ZM455.71 35.6V36.24H434.142V1.68H455.71V2.32H434.782V18.384H450.526V19.024H434.782V35.6H455.71ZM477.489 2.192L501.041 28.688V1.68H501.681V36.24H501.041V29.648L476.849 2.512C476.806 2.46933 476.742 2.42666 476.657 2.384C476.614 2.34133 476.572 2.32 476.529 2.32C476.486 2.32 476.444 2.34133 476.401 2.384C476.401 2.42666 476.401 2.46933 476.401 2.512V36.24H475.761V2.384C475.761 2.128 475.846 1.936 476.017 1.808C476.188 1.68 476.358 1.616 476.529 1.616C476.7 1.616 476.849 1.65866 476.977 1.744C477.105 1.82933 477.276 1.97866 477.489 2.192ZM544.365 35.6V36.24H533.677C529.538 36.24 526.786 35.6 525.421 34.32C524.098 33.04 523.437 30.928 523.437 27.984V10.064C523.437 7.03466 524.119 4.88 525.485 3.6C526.85 2.32 529.581 1.68 533.677 1.68H544.365V2.32H533.677C529.922 2.32 527.383 2.91733 526.061 4.112C524.738 5.264 524.077 7.248 524.077 10.064V27.984C524.077 30.7573 524.717 32.72 525.997 33.872C527.277 35.024 529.837 35.6 533.677 35.6H544.365ZM585.96 35.6V36.24H564.392V1.68H585.96V2.32H565.032V18.384H580.776V19.024H565.032V35.6H585.96Z" fill="white"/>
<path d="M2.005 24.592H1.005V25.592H2.005V24.592ZM26.965 24.592V25.592H27.965V24.592H26.965ZM26.645 19.408L25.6598 19.5793L25.6634 19.6L25.6678 19.6204L26.645 19.408ZM25.941 16.656L26.8849 16.3256L26.8743 16.2955L26.8619 16.2662L25.941 16.656ZM21.525 6.224L20.604 6.61364L20.6041 6.61382L21.525 6.224ZM20.053 3.472L19.221 4.0267L19.2283 4.03779L19.236 4.04868L20.053 3.472ZM8.533 3.472L9.34997 4.04868L9.35766 4.03779L9.36505 4.0267L8.533 3.472ZM7.125 6.16L6.19649 5.7886L6.19342 5.79646L7.125 6.16ZM3.029 16.656L2.09742 16.2925L2.09099 16.3089L2.08514 16.3256L3.029 16.656ZM2.261 19.408L1.28382 19.1956L1.27938 19.216L1.27579 19.2367L2.261 19.408ZM26.965 36.24H25.965V37.24H26.965V36.24ZM26.965 25.232H27.965V24.232H26.965V25.232ZM2.005 25.232V24.232H1.005V25.232H2.005ZM2.005 36.24V37.24H3.005V36.24H2.005ZM1.365 36.24H0.365001V37.24H1.365V36.24ZM1.621 19.344L0.64202 19.14L0.638634 19.1563L0.635789 19.1727L1.621 19.344ZM2.453 16.4L1.52142 16.0365L1.51719 16.0473L1.51321 16.0583L2.453 16.4ZM6.549 5.904L5.61825 5.53835L5.61742 5.54046L6.549 5.904ZM8.149 2.896L8.95406 3.4892H8.95406L8.149 2.896ZM20.437 2.896L19.6117 3.46068L19.6216 3.47512L19.6319 3.4892L20.437 2.896ZM22.101 5.968L21.177 6.35036L21.1801 6.35782L22.101 5.968ZM26.517 16.4L27.4568 16.0583L27.448 16.034L27.4379 16.0102L26.517 16.4ZM27.285 19.344L26.2986 19.5084L26.3026 19.5325L26.3078 19.5564L27.285 19.344ZM27.605 36.24V37.24H28.605V36.24H27.605ZM1.005 22.608V24.592H3.005V22.608H1.005ZM2.005 25.592H26.965V23.592H2.005V25.592ZM27.965 24.592V22.608H25.965V24.592H27.965ZM27.965 22.608C27.965 21.3948 27.8527 20.256 27.6222 19.1956L25.6678 19.6204C25.864 20.5227 25.965 21.5172 25.965 22.608H27.965ZM27.6302 19.2367C27.4511 18.2067 27.2034 17.2357 26.8849 16.3256L24.9971 16.9863C25.276 17.783 25.4976 18.6467 25.6598 19.5793L27.6302 19.2367ZM26.8619 16.2662L22.4459 5.83418L20.6041 6.61382L25.0201 17.0458L26.8619 16.2662ZM22.446 5.83436C21.9579 4.68077 21.4349 3.69559 20.87 2.89531L19.236 4.04868C19.6951 4.69907 20.1534 5.54856 20.604 6.61364L22.446 5.83436ZM20.8851 2.9173C20.1338 1.79044 18.9118 1.32 17.493 1.32V3.32C18.4635 3.32 18.9482 3.61756 19.221 4.0267L20.8851 2.9173ZM17.493 1.32H11.221V3.32H17.493V1.32ZM11.221 1.32C9.74787 1.32 8.46503 1.77118 7.70095 2.9173L9.36505 4.0267C9.62497 3.63682 10.1341 3.32 11.221 3.32V1.32ZM7.71603 2.89531C7.14805 3.69996 6.64422 4.66938 6.19652 5.78861L8.05348 6.53139C8.45912 5.51729 8.89395 4.6947 9.34997 4.04868L7.71603 2.89531ZM6.19342 5.79646L2.09742 16.2925L3.96058 17.0195L8.05658 6.52354L6.19342 5.79646ZM2.08514 16.3256C1.77158 17.2215 1.5049 18.1786 1.28382 19.1956L3.23818 19.6204C3.44376 18.6747 3.68908 17.7971 3.97286 16.9863L2.08514 16.3256ZM1.27579 19.2367C1.0939 20.2825 1.005 21.4073 1.005 22.608H3.005C3.005 21.5047 3.08677 20.4961 3.24621 19.5793L1.27579 19.2367ZM27.965 36.24V25.232H25.965V36.24H27.965ZM26.965 24.232H2.005V26.232H26.965V24.232ZM1.005 25.232V36.24H3.005V25.232H1.005ZM2.005 35.24H1.365V37.24H2.005V35.24ZM2.365 36.24V22.608H0.365001V36.24H2.365ZM2.365 22.608C2.365 21.4598 2.4471 20.4302 2.60621 19.5153L0.635789 19.1727C0.453568 20.2204 0.365001 21.3668 0.365001 22.608H2.365ZM2.59998 19.548C2.80402 18.5686 3.06855 17.6334 3.39279 16.7417L1.51321 16.0583C1.15479 17.0439 0.864648 18.0714 0.64202 19.14L2.59998 19.548ZM3.38458 16.7635L7.48058 6.26754L5.61742 5.54046L1.52142 16.0365L3.38458 16.7635ZM7.47975 6.26965C7.92552 5.13497 8.42021 4.21371 8.95406 3.4892L7.34394 2.3028C6.68313 3.19962 6.11115 4.28369 5.61825 5.53835L7.47975 6.26965ZM8.95406 3.4892C9.28965 3.03375 9.94013 2.68 11.221 2.68V0.679996C9.60054 0.679996 8.20302 1.13691 7.34394 2.3028L8.95406 3.4892ZM11.221 2.68H17.493V0.679996H11.221V2.68ZM17.493 2.68C18.7244 2.68 19.316 3.02847 19.6117 3.46068L21.2623 2.33132C20.4487 1.1422 19.0776 0.679996 17.493 0.679996V2.68ZM19.6319 3.4892C20.1685 4.21732 20.6865 5.16492 21.177 6.35035L23.025 5.58565C22.4915 4.29641 21.9002 3.19602 21.2421 2.3028L19.6319 3.4892ZM21.1801 6.35782L25.5961 16.7898L27.4379 16.0102L23.0219 5.57817L21.1801 6.35782ZM25.5772 16.7417C25.8968 17.6206 26.1376 18.5424 26.2986 19.5084L28.2714 19.1796C28.0911 18.0976 27.8199 17.0567 27.4568 16.0583L25.5772 16.7417ZM26.3078 19.5564C26.5035 20.4563 26.605 21.4717 26.605 22.608H28.605C28.605 21.3549 28.4932 20.1944 28.2622 19.1316L26.3078 19.5564ZM26.605 22.608V36.24H28.605V22.608H26.605ZM27.605 35.24H26.965V37.24H27.605V35.24ZM70.131 1.68V0.679996H69.131V1.68H70.131ZM70.771 1.68H71.771V0.679996H70.771V1.68ZM68.339 34.576L67.6318 33.8688L67.6225 33.8784L68.339 34.576ZM53.235 36.368L52.9674 37.3315L52.9741 37.3334L53.235 36.368ZM49.587 34.64L48.9362 35.3993L48.9469 35.4084L48.9578 35.4172L49.587 34.64ZM47.667 31.888L46.7146 32.1928L46.72 32.2099L46.7261 32.2267L47.667 31.888ZM47.155 23.312V22.312H46.155V23.312H47.155ZM47.795 23.312H48.795V22.312H47.795V23.312ZM50.163 34.192L49.4863 34.9284L49.4962 34.9372L50.163 34.192ZM67.827 34.192L68.5136 34.919L68.5189 34.914L68.5241 34.909L67.827 34.192ZM70.131 2.68H70.771V0.679996H70.131V2.68ZM69.771 1.68V28.368H71.771V1.68H69.771ZM69.771 28.368C69.771 30.6487 69.0464 32.4544 67.6319 33.8689L69.0461 35.2831C70.8742 33.455 71.771 31.122 71.771 28.368H69.771ZM67.6225 33.8784C66.3493 35.186 63.6746 36.008 59.187 36.008V38.008C63.7447 38.008 67.1713 37.2087 69.0555 35.2736L67.6225 33.8784ZM59.187 36.008C56.8492 36.008 54.9603 35.7984 53.4959 35.4026L52.9741 37.3334C54.6671 37.7909 56.7461 38.008 59.187 38.008V36.008ZM53.5026 35.4045C52.0514 35.0014 50.9732 34.4756 50.2162 33.8628L48.9578 35.4172C49.9928 36.2551 51.3466 36.8813 52.9674 37.3315L53.5026 35.4045ZM50.2378 33.8807C49.4677 33.2206 48.9308 32.4462 48.6079 31.5493L46.7261 32.2267C47.1712 33.4631 47.9143 34.5234 48.9362 35.3993L50.2378 33.8807ZM48.6194 31.5832C48.3138 30.628 48.155 29.5591 48.155 28.368H46.155C46.155 29.7369 46.3376 31.0147 46.7146 32.1928L48.6194 31.5832ZM48.155 28.368V23.312H46.155V28.368H48.155ZM47.155 24.312H47.795V22.312H47.155V24.312ZM46.795 23.312V28.368H48.795V23.312H46.795ZM46.795 28.368C46.795 31.0384 47.6729 33.2619 49.4864 34.9283L50.8396 33.4557C49.4957 32.2207 48.795 30.5616 48.795 28.368H46.795ZM49.4962 34.9372C51.4141 36.6533 54.7597 37.368 59.187 37.368V35.368C54.825 35.368 52.1545 34.632 50.8298 33.4468L49.4962 34.9372ZM59.187 37.368C63.4467 37.368 66.6777 36.6529 68.5136 34.919L67.1404 33.465C65.9043 34.6324 63.3753 35.368 59.187 35.368V37.368ZM68.5241 34.909C70.277 33.2048 71.131 30.9932 71.131 28.368H69.131C69.131 30.5215 68.449 32.1926 67.1299 33.475L68.5241 34.909ZM71.131 28.368V1.68H69.131V28.368H71.131ZM98.5135 2.64H99.5135V1.64H98.5135V2.64ZM96.9775 14.672L97.6532 15.4092L97.6614 15.4017L97.6694 15.394L96.9775 14.672ZM89.9375 16.08H88.9375V17.08H89.9375V16.08ZM89.9375 15.44V14.44H88.9375V15.44H89.9375ZM96.5295 14.16L97.2192 14.8841L97.228 14.8757L97.2366 14.8671L96.5295 14.16ZM97.8735 3.28H98.8735V2.28H97.8735V3.28ZM89.9375 3.28H88.9375V4.28H89.9375V3.28ZM89.9375 2.64V1.64H88.9375V2.64H89.9375ZM97.5135 2.64V10.256H99.5135V2.64H97.5135ZM97.5135 10.256C97.5135 12.0534 97.0468 13.2205 96.2856 13.95L97.6694 15.394C98.9562 14.1608 99.5135 12.3839 99.5135 10.256H97.5135ZM96.3018 13.9348C95.5021 14.6679 94.3979 15.08 92.8815 15.08V17.08C94.7784 17.08 96.4049 16.5534 97.6532 15.4092L96.3018 13.9348ZM92.8815 15.08H89.9375V17.08H92.8815V15.08ZM90.9375 16.08V15.44H88.9375V16.08H90.9375ZM89.9375 16.44H92.8815V14.44H89.9375V16.44ZM92.8815 16.44C94.6091 16.44 96.0949 15.9549 97.2192 14.8841L95.8398 13.4359C95.1721 14.0718 94.2259 14.44 92.8815 14.44V16.44ZM97.2366 14.8671C98.3779 13.7258 98.8735 12.1332 98.8735 10.256H96.8735C96.8735 11.7921 96.4731 12.8022 95.8224 13.4529L97.2366 14.8671ZM98.8735 10.256V3.28H96.8735V10.256H98.8735ZM97.8735 2.28H89.9375V4.28H97.8735V2.28ZM90.9375 3.28V2.64H88.9375V3.28H90.9375ZM89.9375 3.64H98.5135V1.64H89.9375V3.64ZM136.851 1.68H137.851V0.679996H136.851V1.68ZM136.851 2.32V3.32H137.851V2.32H136.851ZM117.651 15.888L118.358 15.1809L117.651 15.888ZM120.019 17.04L120.219 16.0601L120.205 16.0573L120.19 16.0548L120.019 17.04ZM133.523 19.792L133.323 20.7719L133.327 20.7726L133.523 19.792ZM136.659 21.456L135.934 22.1447L135.943 22.154L135.952 22.1631L136.659 21.456ZM136.019 34.448L136.701 35.1791L136.708 35.1731L136.714 35.167L136.019 34.448ZM114.899 36.24H113.899V37.24H114.899V36.24ZM114.899 35.6V34.6H113.899V35.6H114.899ZM135.507 34L136.186 34.7338L136.187 34.7328L135.507 34ZM136.211 21.968L135.464 22.6324L135.483 22.6543L135.504 22.6751L136.211 21.968ZM133.395 20.432L133.605 19.4541L133.595 19.4521L133.395 20.432ZM119.891 17.68L120.091 16.7001L120.08 16.698L119.891 17.68ZM117.139 16.4L116.432 17.1071L116.454 17.1292L116.477 17.1498L117.139 16.4ZM117.907 3.344L118.573 4.08994L118.58 4.08343L118.587 4.07679L117.907 3.344ZM135.851 1.68V2.32H137.851V1.68H135.851ZM136.851 1.32H122.643V3.32H136.851V1.32ZM122.643 1.32C120.662 1.32 118.97 1.86712 117.678 3.05607L119.032 4.52793C119.873 3.75422 121.04 3.32 122.643 3.32V1.32ZM117.678 3.05607C116.398 4.23317 115.755 5.7406 115.755 7.504H117.755C117.755 6.28074 118.178 5.3135 119.032 4.52793L117.678 3.05607ZM115.755 7.504V12.752H117.755V7.504H115.755ZM115.755 12.752C115.755 14.323 116.059 15.7099 116.944 16.5951L118.358 15.1809C118.049 14.8715 117.755 14.1676 117.755 12.752H115.755ZM116.944 16.5951C117.712 17.3628 118.701 17.8257 119.848 18.0252L120.19 16.0548C119.375 15.9129 118.785 15.6079 118.358 15.1809L116.944 16.5951ZM119.819 18.0199L133.323 20.7719L133.723 18.8121L120.219 16.0601L119.819 18.0199ZM133.327 20.7726C134.428 20.9928 135.281 21.4571 135.934 22.1447L137.384 20.7673C136.416 19.7483 135.178 19.1032 133.719 18.8114L133.327 20.7726ZM135.952 22.1631C136.512 22.7232 136.939 23.9095 136.939 26.064H138.939C138.939 23.7812 138.513 21.8955 137.366 20.7489L135.952 22.1631ZM136.939 26.064V29.776H138.939V26.064H136.939ZM136.939 29.776C136.939 31.3988 136.398 32.6913 135.324 33.729L136.714 35.167C138.201 33.7301 138.939 31.9079 138.939 29.776H136.939ZM135.337 33.7169C134.284 34.6994 132.822 35.24 130.835 35.24V37.24C133.2 37.24 135.194 36.586 136.701 35.1791L135.337 33.7169ZM130.835 35.24H114.899V37.24H130.835V35.24ZM115.899 36.24V35.6H113.899V36.24H115.899ZM114.899 36.6H130.835V34.6H114.899V36.6ZM130.835 36.6C132.984 36.6 134.806 36.0116 136.186 34.7338L134.828 33.2662C133.904 34.1218 132.612 34.6 130.835 34.6V36.6ZM136.187 34.7328C137.596 33.4245 138.299 31.7461 138.299 29.776H136.299C136.299 31.2193 135.807 32.3568 134.827 33.2672L136.187 34.7328ZM138.299 29.776V26.064H136.299V29.776H138.299ZM138.299 26.064C138.299 24.0157 137.945 22.2874 136.918 21.2609L135.504 22.6751C135.928 23.0993 136.299 24.1016 136.299 26.064H138.299ZM136.958 21.3036C136.109 20.3482 134.967 19.7461 133.605 19.4542L133.185 21.4098C134.213 21.6299 134.948 22.0518 135.464 22.6324L136.958 21.3036ZM133.595 19.4521L120.091 16.7001L119.691 18.6599L133.195 21.4119L133.595 19.4521ZM120.08 16.698C119.116 16.5127 118.371 16.1533 117.801 15.6502L116.477 17.1498C117.358 17.9267 118.447 18.4207 119.702 18.662L120.08 16.698ZM117.846 15.6929C117.455 15.3015 117.115 14.4322 117.115 12.752H115.115C115.115 14.5705 115.458 16.1331 116.432 17.1071L117.846 15.6929ZM117.115 12.752V7.504H115.115V12.752H117.115ZM117.115 7.504C117.115 6.06109 117.606 4.95326 118.573 4.08994L117.241 2.59806C115.819 3.86807 115.115 5.53357 115.115 7.504H117.115ZM118.587 4.07679C119.561 3.17296 120.878 2.68 122.643 2.68V0.679996C120.482 0.679996 118.643 1.29637 117.227 2.6112L118.587 4.07679ZM122.643 2.68H136.851V0.679996H122.643V2.68ZM194.835 35.6H195.835V34.6H194.835V35.6ZM194.835 36.24V37.24H195.835V36.24H194.835ZM173.267 36.24H172.267V37.24H173.267V36.24ZM173.267 1.68V0.679996H172.267V1.68H173.267ZM194.835 1.68H195.835V0.679996H194.835V1.68ZM194.835 2.32V3.32H195.835V2.32H194.835ZM173.907 2.32V1.32H172.907V2.32H173.907ZM173.907 18.384H172.907V19.384H173.907V18.384ZM189.651 18.384H190.651V17.384H189.651V18.384ZM189.651 19.024V20.024H190.651V19.024H189.651ZM173.907 19.024V18.024H172.907V19.024H173.907ZM173.907 35.6H172.907V36.6H173.907V35.6ZM193.835 35.6V36.24H195.835V35.6H193.835ZM194.835 35.24H173.267V37.24H194.835V35.24ZM174.267 36.24V1.68H172.267V36.24H174.267ZM173.267 2.68H194.835V0.679996H173.267V2.68ZM193.835 1.68V2.32H195.835V1.68H193.835ZM194.835 1.32H173.907V3.32H194.835V1.32ZM172.907 2.32V18.384H174.907V2.32H172.907ZM173.907 19.384H189.651V17.384H173.907V19.384ZM188.651 18.384V19.024H190.651V18.384H188.651ZM189.651 18.024H173.907V20.024H189.651V18.024ZM172.907 19.024V35.6H174.907V19.024H172.907ZM173.907 36.6H194.835V34.6H173.907V36.6ZM215.078 36.24V37.24H216.078V36.24H215.078ZM214.438 36.24H213.438V37.24H214.438V36.24ZM214.502 30.736L213.507 30.6365L213.505 30.6599L213.503 30.6834L214.502 30.736ZM215.398 28.432L216.198 29.032L216.205 29.0225L215.398 28.432ZM223.078 17.936L223.885 18.5265L224.32 17.9324L223.882 17.3408L223.078 17.936ZM215.398 7.568L214.574 8.13453L214.584 8.14906L214.594 8.16323L215.398 7.568ZM214.566 5.328L213.571 5.4275L213.572 5.43268L214.566 5.328ZM214.438 1.68V0.679996H213.438V1.68H214.438ZM215.078 1.68H216.078V0.679996H215.078V1.68ZM215.974 7.312L215.16 7.89323L215.165 7.90027L215.17 7.90722L215.974 7.312ZM223.654 17.68L222.85 18.2752L223.15 18.68H223.654V17.68ZM231.27 17.68V18.68H231.784L232.083 18.2622L231.27 17.68ZM238.694 7.312L239.507 7.89418L239.508 7.89324L238.694 7.312ZM239.59 1.68V0.679996H238.59V1.68H239.59ZM240.23 1.68H241.23V0.679996H240.23V1.68ZM240.102 5.328L241.097 5.43268L241.097 5.4275L240.102 5.328ZM239.27 7.568L240.082 8.15204L240.088 8.14335L240.094 8.13453L239.27 7.568ZM231.718 18.064L230.906 17.48L230.483 18.0676L230.91 18.6528L231.718 18.064ZM239.27 28.432L240.094 27.8655L240.086 27.8542L240.078 27.8432L239.27 28.432ZM240.102 30.736L239.107 30.8355L239.107 30.8407L240.102 30.736ZM240.23 36.24V37.24H241.23V36.24H240.23ZM239.59 36.24H238.59V37.24H239.59V36.24ZM239.462 30.8L240.457 30.6953L239.462 30.8ZM238.694 28.688L239.508 28.1068L239.505 28.1025L238.694 28.688ZM231.206 18.32L232.017 17.7345L231.717 17.32H231.206V18.32ZM223.526 18.32V17.32H223.017L222.718 17.7312L223.526 18.32ZM215.974 28.688L216.767 29.2977L216.775 29.2873L216.782 29.2768L215.974 28.688ZM215.206 30.8L216.201 30.9047L216.201 30.8995L215.206 30.8ZM214.078 33.36V36.24H216.078V33.36H214.078ZM215.078 35.24H214.438V37.24H215.078V35.24ZM215.438 36.24V33.36H213.438V36.24H215.438ZM215.438 33.36C215.438 32.4362 215.459 31.5793 215.501 30.7886L213.503 30.6834C213.46 31.5141 213.438 32.4064 213.438 33.36H215.438ZM215.497 30.8355C215.564 30.1627 215.796 29.568 216.198 29.032L214.598 27.832C213.976 28.6614 213.61 29.6026 213.507 30.6365L215.497 30.8355ZM216.205 29.0225L223.885 18.5265L222.271 17.3455L214.591 27.8415L216.205 29.0225ZM223.882 17.3408L216.202 6.97277L214.594 8.16323L222.274 18.5312L223.882 17.3408ZM216.222 7.00147C215.846 6.4538 215.628 5.86543 215.561 5.22331L213.572 5.43268C213.675 6.4119 214.012 7.31686 214.574 8.13453L216.222 7.00147ZM215.561 5.22849C215.479 4.41115 215.438 3.54851 215.438 2.64H213.438C213.438 3.60882 213.482 4.53818 213.571 5.4275L215.561 5.22849ZM215.438 2.64V1.68H213.438V2.64H215.438ZM214.438 2.68H215.078V0.679996H214.438V2.68ZM214.078 1.68V2.64H216.078V1.68H214.078ZM214.078 2.64C214.078 3.56758 214.122 4.45603 214.212 5.30468L216.201 5.09531C216.119 4.32264 216.078 3.50442 216.078 2.64H214.078ZM214.212 5.30468C214.313 6.26774 214.622 7.14026 215.16 7.89323L216.788 6.73076C216.472 6.28906 216.27 5.75359 216.201 5.09531L214.212 5.30468ZM215.17 7.90722L222.85 18.2752L224.458 17.0848L216.778 6.71677L215.17 7.90722ZM223.654 18.68H231.27V16.68H223.654V18.68ZM232.083 18.2622L239.507 7.89418L237.881 6.72981L230.457 17.0978L232.083 18.2622ZM239.508 7.89324C240.046 7.14026 240.355 6.26774 240.457 5.30468L238.467 5.09531C238.398 5.75359 238.196 6.28906 237.88 6.73076L239.508 7.89324ZM240.457 5.30468C240.546 4.45602 240.59 3.56758 240.59 2.64H238.59C238.59 3.50442 238.549 4.32264 238.467 5.09531L240.457 5.30468ZM240.59 2.64V1.68H238.59V2.64H240.59ZM239.59 2.68H240.23V0.679996H239.59V2.68ZM239.23 1.68V2.64H241.23V1.68H239.23ZM239.23 2.64C239.23 3.54851 239.189 4.41115 239.107 5.22849L241.097 5.4275C241.186 4.53818 241.23 3.60882 241.23 2.64H239.23ZM239.107 5.22332C239.04 5.86543 238.822 6.4538 238.446 7.00147L240.094 8.13453C240.656 7.31686 240.993 6.4119 241.097 5.43268L239.107 5.22332ZM238.458 6.98395L230.906 17.48L232.53 18.648L240.082 8.15204L238.458 6.98395ZM230.91 18.6528L238.462 29.0208L240.078 27.8432L232.526 17.4752L230.91 18.6528ZM238.446 28.9985C238.816 29.5374 239.038 30.1436 239.107 30.8355L241.097 30.6365C240.996 29.6217 240.662 28.6919 240.094 27.8655L238.446 28.9985ZM239.107 30.8407C239.189 31.6118 239.23 32.4512 239.23 33.36H241.23C241.23 32.3915 241.186 31.4815 241.097 30.6313L239.107 30.8407ZM239.23 33.36V36.24H241.23V33.36H239.23ZM240.23 35.24H239.59V37.24H240.23V35.24ZM240.59 36.24V33.36H238.59V36.24H240.59ZM240.59 33.36C240.59 32.4324 240.546 31.544 240.457 30.6953L238.467 30.9047C238.549 31.6774 238.59 32.4956 238.59 33.36H240.59ZM240.457 30.6953C240.355 29.7323 240.046 28.8597 239.508 28.1068L237.88 29.2692C238.196 29.7109 238.398 30.2464 238.467 30.9047L240.457 30.6953ZM239.505 28.1025L232.017 17.7345L230.395 18.9055L237.883 29.2735L239.505 28.1025ZM231.206 17.32H223.526V19.32H231.206V17.32ZM222.718 17.7312L215.166 28.0992L216.782 29.2768L224.334 18.9088L222.718 17.7312ZM215.181 28.0783C214.618 28.811 214.311 29.7034 214.211 30.7005L216.201 30.8995C216.272 30.1899 216.477 29.6744 216.767 29.2977L215.181 28.0783ZM214.212 30.6953C214.122 31.544 214.078 32.4324 214.078 33.36H216.078C216.078 32.4956 216.119 31.6774 216.201 30.9047L214.212 30.6953ZM263.161 23.632V22.632H262.161V23.632H263.161ZM263.161 36.24V37.24H264.161V36.24H263.161ZM262.522 36.24H261.522V37.24H262.522V36.24ZM262.522 1.68V0.679996H261.522V1.68H262.522ZM281.21 2.384L280.855 3.319L280.874 3.32623L280.893 3.33268L281.21 2.384ZM284.154 4.176L284.901 3.51163L284.154 4.176ZM285.561 6.928L284.589 7.16137V7.16137L285.561 6.928ZM285.561 18.576L286.532 18.8185L286.534 18.8094L285.561 18.576ZM284.154 21.264L284.882 21.9494L284.891 21.939L284.901 21.9284L284.154 21.264ZM281.21 22.992L280.893 22.0433L280.884 22.0466L281.21 22.992ZM263.161 22.992H262.161V23.992H263.161V22.992ZM280.889 22.416L280.583 21.4639L280.573 21.4673L280.889 22.416ZM283.642 20.816L284.371 21.4999L284.381 21.4889L284.391 21.4776L283.642 20.816ZM284.922 18.32L283.954 18.0676L283.95 18.0829L283.946 18.0984L284.922 18.32ZM284.922 7.184L283.944 7.39643L283.949 7.41652L283.954 7.43642L284.922 7.184ZM283.642 4.624L284.391 3.96238V3.96237L283.642 4.624ZM280.889 2.96L280.542 3.89775L280.563 3.90534L280.583 3.91203L280.889 2.96ZM263.161 2.32V1.32H262.161V2.32H263.161ZM276.345 22.632H263.161V24.632H276.345V22.632ZM262.161 23.632V36.24H264.161V23.632H262.161ZM263.161 35.24H262.522V37.24H263.161V35.24ZM263.522 36.24V1.68H261.522V36.24H263.522ZM262.522 2.68H276.345V0.679996H262.522V2.68ZM276.345 2.68C278.286 2.68 279.773 2.90883 280.855 3.319L281.564 1.449C280.171 0.920496 278.416 0.679996 276.345 0.679996V2.68ZM280.893 3.33268C282.058 3.72081 282.871 4.23803 283.406 4.84036L284.901 3.51163C284.071 2.57797 282.921 1.90052 281.526 1.43532L280.893 3.33268ZM283.406 4.84036C283.972 5.47712 284.369 6.24357 284.589 7.16137L286.534 6.69463C286.242 5.4791 285.7 4.41088 284.901 3.51163L283.406 4.84036ZM284.589 7.16137C284.825 8.14259 284.945 9.21543 284.945 10.384H286.945C286.945 9.0779 286.81 7.84674 286.534 6.69462L284.589 7.16137ZM284.945 10.384V15.12H286.945V10.384H284.945ZM284.945 15.12C284.945 16.2886 284.825 17.3614 284.589 18.3426L286.534 18.8094C286.81 17.6573 286.945 16.4261 286.945 15.12H284.945ZM284.591 18.3335C284.373 19.2054 283.979 19.9556 283.406 20.5996L284.901 21.9284C285.694 21.0364 286.238 19.9946 286.532 18.8185L284.591 18.3335ZM283.425 20.5786C282.889 21.1483 282.069 21.6512 280.893 22.0433L281.526 23.9407C282.91 23.4794 284.053 22.8303 284.882 21.9494L283.425 20.5786ZM280.884 22.0466C279.791 22.4232 278.292 22.632 276.345 22.632V24.632C278.409 24.632 280.153 24.4141 281.535 23.9374L280.884 22.0466ZM263.161 23.992H276.345V21.992H263.161V23.992ZM276.345 23.992C278.278 23.992 279.912 23.7959 281.206 23.3647L280.573 21.4673C279.563 21.8041 278.167 21.992 276.345 21.992V23.992ZM281.196 23.368C282.499 22.9491 283.582 22.3416 284.371 21.4999L282.912 20.1321C282.421 20.6557 281.67 21.1149 280.583 21.464L281.196 23.368ZM284.391 21.4776C285.142 20.6274 285.646 19.6443 285.897 18.5416L283.946 18.0984C283.77 18.873 283.422 19.5539 282.892 20.1544L284.391 21.4776ZM285.889 18.5724C286.169 17.4984 286.306 16.3459 286.306 15.12H284.306C284.306 16.1981 284.186 17.1789 283.954 18.0676L285.889 18.5724ZM286.306 15.12V10.384H284.306V15.12H286.306ZM286.306 10.384C286.306 9.15814 286.169 8.00561 285.889 6.93158L283.954 7.43642C284.186 8.32506 284.306 9.30585 284.306 10.384H286.306ZM285.899 6.97157C285.651 5.83019 285.149 4.82059 284.391 3.96238L282.892 5.28562C283.414 5.87807 283.766 6.57514 283.944 7.39643L285.899 6.97157ZM284.391 3.96237C283.602 3.06756 282.512 2.43103 281.196 2.00797L280.583 3.91203C281.657 4.25696 282.401 4.72977 282.892 5.28562L284.391 3.96237ZM281.237 2.02225C279.931 1.53864 278.285 1.32 276.345 1.32V3.32C278.16 3.32 279.544 3.52802 280.542 3.89775L281.237 2.02225ZM276.345 1.32H263.161V3.32H276.345V1.32ZM262.161 2.32V22.992H264.161V2.32H262.161ZM327.522 35.6H328.522V34.6H327.522V35.6ZM327.522 36.24V37.24H328.522V36.24H327.522ZM305.954 36.24H304.954V37.24H305.954V36.24ZM305.954 1.68V0.679996H304.954V1.68H305.954ZM327.522 1.68H328.522V0.679996H327.522V1.68ZM327.522 2.32V3.32H328.522V2.32H327.522ZM306.595 2.32V1.32H305.595V2.32H306.595ZM306.595 18.384H305.595V19.384H306.595V18.384ZM322.339 18.384H323.339V17.384H322.339V18.384ZM322.339 19.024V20.024H323.339V19.024H322.339ZM306.595 19.024V18.024H305.595V19.024H306.595ZM306.595 35.6H305.595V36.6H306.595V35.6ZM326.522 35.6V36.24H328.522V35.6H326.522ZM327.522 35.24H305.954V37.24H327.522V35.24ZM306.954 36.24V1.68H304.954V36.24H306.954ZM305.954 2.68H327.522V0.679996H305.954V2.68ZM326.522 1.68V2.32H328.522V1.68H326.522ZM327.522 1.32H306.595V3.32H327.522V1.32ZM305.595 2.32V18.384H307.595V2.32H305.595ZM306.595 19.384H322.339V17.384H306.595V19.384ZM321.339 18.384V19.024H323.339V18.384H321.339ZM322.339 18.024H306.595V20.024H322.339V18.024ZM305.595 19.024V35.6H307.595V19.024H305.595ZM306.595 36.6H327.522V34.6H306.595V36.6ZM348.405 2.32V1.32H347.405V2.32H348.405ZM348.405 20.816H347.405V21.816H348.405V20.816ZM367.669 18.896L368.489 19.4695L367.669 18.896ZM367.349 4.176L366.592 4.82894L366.598 4.8363L366.605 4.84354L367.349 4.176ZM348.405 36.24V37.24H349.405V36.24H348.405ZM347.766 36.24H346.766V37.24H347.766V36.24ZM347.766 1.68V0.679996H346.766V1.68H347.766ZM367.862 3.792L367.099 4.43898L367.104 4.44478L367.109 4.4505L367.862 3.792ZM368.885 18.256L369.81 18.6384L369.814 18.6274L368.885 18.256ZM365.814 20.816L365.521 19.8596L365.814 21.816V20.816ZM372.341 22.608L371.659 23.3391L371.666 23.3452L371.673 23.3513L372.341 22.608ZM374.262 36.24V37.24H375.262V36.24H374.262ZM373.621 36.24H372.621V37.24H373.621V36.24ZM371.893 22.992L371.214 23.7258L371.222 23.7327L371.229 23.7394L371.893 22.992ZM348.405 21.392V20.392H347.405V21.392H348.405ZM362.358 1.32H348.405V3.32H362.358V1.32ZM347.405 2.32V20.816H349.405V2.32H347.405ZM348.405 21.816H362.358V19.816H348.405V21.816ZM362.358 21.816C365.104 21.816 367.306 21.1594 368.489 19.4695L366.85 18.3225C366.241 19.1926 364.902 19.816 362.358 19.816V21.816ZM368.489 19.4695C369.548 17.9563 370.013 15.9108 370.013 13.456H368.013C368.013 15.6946 367.583 17.2757 366.85 18.3225L368.489 19.4695ZM370.013 13.456V8.976H368.013V13.456H370.013ZM370.013 8.976C370.013 6.81415 369.397 4.96158 368.094 3.50845L366.605 4.84354C367.521 5.86508 368.013 7.21251 368.013 8.976H370.013ZM368.107 3.52306C366.785 1.99014 364.793 1.32 362.358 1.32V3.32C364.445 3.32 365.78 3.88719 366.592 4.82894L368.107 3.52306ZM348.405 35.24H347.766V37.24H348.405V35.24ZM348.766 36.24V1.68H346.766V36.24H348.766ZM347.766 2.68H362.358V0.679996H347.766V2.68ZM362.358 2.68C364.644 2.68 366.154 3.32467 367.099 4.43898L368.624 3.14502C367.18 1.44332 365.02 0.679996 362.358 0.679996V2.68ZM367.109 4.4505C368.12 5.60605 368.654 7.08834 368.654 8.976H370.654C370.654 6.68233 369.992 4.70862 368.614 3.1335L367.109 4.4505ZM368.654 8.976V13.392H370.654V8.976H368.654ZM368.654 13.392C368.654 15.2771 368.406 16.7614 367.957 17.8846L369.814 18.6274C370.389 17.1906 370.654 15.4322 370.654 13.392H368.654ZM367.961 17.8736C367.587 18.7793 366.835 19.4584 365.521 19.8596L366.106 21.7724C367.865 21.2349 369.16 20.2074 369.81 18.6384L367.961 17.8736ZM365.814 21.816H366.518V19.816H365.814V21.816ZM366.518 21.816C368.988 21.816 370.637 22.3851 371.659 23.3391L373.024 21.8769C371.486 20.4416 369.253 19.816 366.518 19.816V21.816ZM371.673 23.3513C372.685 24.2624 373.262 25.6419 373.262 27.664H375.262C375.262 25.2488 374.558 23.2576 373.01 21.8647L371.673 23.3513ZM373.262 27.664V36.24H375.262V27.664H373.262ZM374.262 35.24H373.621V37.24H374.262V35.24ZM374.621 36.24V27.664H372.621V36.24H374.621ZM374.621 27.664C374.621 25.3942 373.992 23.5192 372.558 22.2446L371.229 23.7394C372.099 24.5128 372.621 25.7524 372.621 27.664H374.621ZM372.573 22.2582C371.157 20.9474 369.068 20.392 366.518 20.392V22.392C368.831 22.392 370.326 22.9033 371.214 23.7258L372.573 22.2582ZM366.518 20.392H348.405V22.392H366.518V20.392ZM347.405 21.392V36.24H349.405V21.392H347.405ZM413.504 36.24V37.24H414.504V36.24H413.504ZM393.152 36.24H392.152V37.24H393.152V36.24ZM393.152 35.6V34.6H392.152V35.6H393.152ZM403.072 35.6V36.6H404.072V35.6H403.072ZM403.072 2.32H404.072V1.32H403.072V2.32ZM393.152 2.32H392.152V3.32H393.152V2.32ZM393.152 1.68V0.679996H392.152V1.68H393.152ZM413.504 1.68H414.504V0.679996H413.504V1.68ZM413.504 2.32V3.32H414.504V2.32H413.504ZM403.712 2.32V1.32H402.712V2.32H403.712ZM403.712 35.6H402.712V36.6H403.712V35.6ZM413.504 35.6H414.504V34.6H413.504V35.6ZM413.504 35.24H393.152V37.24H413.504V35.24ZM394.152 36.24V35.6H392.152V36.24H394.152ZM393.152 36.6H403.072V34.6H393.152V36.6ZM404.072 35.6V2.32H402.072V35.6H404.072ZM403.072 1.32H393.152V3.32H403.072V1.32ZM394.152 2.32V1.68H392.152V2.32H394.152ZM393.152 2.68H413.504V0.679996H393.152V2.68ZM412.504 1.68V2.32H414.504V1.68H412.504ZM413.504 1.32H403.712V3.32H413.504V1.32ZM402.712 2.32V35.6H404.712V2.32H402.712ZM403.712 36.6H413.504V34.6H403.712V36.6ZM412.504 35.6V36.24H414.504V35.6H412.504ZM455.71 35.6H456.71V34.6H455.71V35.6ZM455.71 36.24V37.24H456.71V36.24H455.71ZM434.142 36.24H433.142V37.24H434.142V36.24ZM434.142 1.68V0.679996H433.142V1.68H434.142ZM455.71 1.68H456.71V0.679996H455.71V1.68ZM455.71 2.32V3.32H456.71V2.32H455.71ZM434.782 2.32V1.32H433.782V2.32H434.782ZM434.782 18.384H433.782V19.384H434.782V18.384ZM450.526 18.384H451.526V17.384H450.526V18.384ZM450.526 19.024V20.024H451.526V19.024H450.526ZM434.782 19.024V18.024H433.782V19.024H434.782ZM434.782 35.6H433.782V36.6H434.782V35.6ZM454.71 35.6V36.24H456.71V35.6H454.71ZM455.71 35.24H434.142V37.24H455.71V35.24ZM435.142 36.24V1.68H433.142V36.24H435.142ZM434.142 2.68H455.71V0.679996H434.142V2.68ZM454.71 1.68V2.32H456.71V1.68H454.71ZM455.71 1.32H434.782V3.32H455.71V1.32ZM433.782 2.32V18.384H435.782V2.32H433.782ZM434.782 19.384H450.526V17.384H434.782V19.384ZM449.526 18.384V19.024H451.526V18.384H449.526ZM450.526 18.024H434.782V20.024H450.526V18.024ZM433.782 19.024V35.6H435.782V19.024H433.782ZM434.782 36.6H455.71V34.6H434.782V36.6ZM477.489 2.192L478.236 1.52763L478.217 1.50567L478.196 1.48489L477.489 2.192ZM501.041 28.688L500.294 29.3524L502.041 31.3182V28.688H501.041ZM501.041 1.68V0.679996H500.041V1.68H501.041ZM501.681 1.68H502.681V0.679996H501.681V1.68ZM501.681 36.24V37.24H502.681V36.24H501.681ZM501.041 36.24H500.041V37.24H501.041V36.24ZM501.041 29.648H502.041V29.267L501.787 28.9825L501.041 29.648ZM476.849 2.512L477.595 1.84654L477.576 1.82515L477.556 1.80489L476.849 2.512ZM476.657 2.384L475.95 3.09111L476.065 3.20586L476.21 3.27843L476.657 2.384ZM476.401 2.384L475.694 1.67689L475.401 1.96979V2.384H476.401ZM476.401 36.24V37.24H477.401V36.24H476.401ZM475.761 36.24H474.761V37.24H475.761V36.24ZM476.017 1.808L475.417 1.008V1.008L476.017 1.808ZM476.977 1.744L476.422 2.57604V2.57605L476.977 1.744ZM476.742 2.85636L500.294 29.3524L501.788 28.0236L478.236 1.52763L476.742 2.85636ZM502.041 28.688V1.68H500.041V28.688H502.041ZM501.041 2.68H501.681V0.679996H501.041V2.68ZM500.681 1.68V36.24H502.681V1.68H500.681ZM501.681 35.24H501.041V37.24H501.681V35.24ZM502.041 36.24V29.648H500.041V36.24H502.041ZM501.787 28.9825L477.595 1.84654L476.103 3.17745L500.295 30.3135L501.787 28.9825ZM477.556 1.80489C477.406 1.65527 477.237 1.55576 477.104 1.48957L476.21 3.27843C476.224 3.28542 476.224 3.2864 476.214 3.28005C476.206 3.27428 476.178 3.25499 476.142 3.21911L477.556 1.80489ZM477.364 1.67689C477.212 1.52522 476.93 1.32 476.529 1.32V3.32C476.213 3.32 476.016 3.15744 475.95 3.09111L477.364 1.67689ZM476.529 1.32C476.128 1.32 475.846 1.52522 475.694 1.67689L477.108 3.09111C477.042 3.15744 476.845 3.32 476.529 3.32V1.32ZM475.401 2.384C475.401 2.38408 475.401 2.38416 475.401 2.38425C475.401 2.38433 475.401 2.38441 475.401 2.3845C475.401 2.38458 475.401 2.38467 475.401 2.38475C475.401 2.38483 475.401 2.38492 475.401 2.385C475.401 2.38508 475.401 2.38517 475.401 2.38525C475.401 2.38533 475.401 2.38542 475.401 2.3855C475.401 2.38558 475.401 2.38567 475.401 2.38575C475.401 2.38583 475.401 2.38592 475.401 2.386C475.401 2.38608 475.401 2.38617 475.401 2.38625C475.401 2.38633 475.401 2.38642 475.401 2.3865C475.401 2.38658 475.401 2.38667 475.401 2.38675C475.401 2.38683 475.401 2.38692 475.401 2.387C475.401 2.38708 475.401 2.38717 475.401 2.38725C475.401 2.38733 475.401 2.38741 475.401 2.3875C475.401 2.38758 475.401 2.38766 475.401 2.38775C475.401 2.38783 475.401 2.38791 475.401 2.388C475.401 2.38808 475.401 2.38817 475.401 2.38825C475.401 2.38833 475.401 2.38842 475.401 2.3885C475.401 2.38858 475.401 2.38867 475.401 2.38875C475.401 2.38883 475.401 2.38892 475.401 2.389C475.401 2.38908 475.401 2.38917 475.401 2.38925C475.401 2.38933 475.401 2.38942 475.401 2.3895C475.401 2.38958 475.401 2.38967 475.401 2.38975C475.401 2.38983 475.401 2.38992 475.401 2.39C475.401 2.39008 475.401 2.39017 475.401 2.39025C475.401 2.39033 475.401 2.39042 475.401 2.3905C475.401 2.39058 475.401 2.39067 475.401 2.39075C475.401 2.39083 475.401 2.39091 475.401 2.391C475.401 2.39108 475.401 2.39116 475.401 2.39125C475.401 2.39133 475.401 2.39141 475.401 2.3915C475.401 2.39158 475.401 2.39166 475.401 2.39175C475.401 2.39183 475.401 2.39192 475.401 2.392C475.401 2.39208 475.401 2.39217 475.401 2.39225C475.401 2.39233 475.401 2.39242 475.401 2.3925C475.401 2.39258 475.401 2.39267 475.401 2.39275C475.401 2.39283 475.401 2.39292 475.401 2.393C475.401 2.39308 475.401 2.39317 475.401 2.39325C475.401 2.39333 475.401 2.39342 475.401 2.3935C475.401 2.39358 475.401 2.39367 475.401 2.39375C475.401 2.39383 475.401 2.39392 475.401 2.394C475.401 2.39408 475.401 2.39417 475.401 2.39425C475.401 2.39433 475.401 2.39441 475.401 2.3945C475.401 2.39458 475.401 2.39466 475.401 2.39475C475.401 2.39483 475.401 2.39491 475.401 2.395C475.401 2.39508 475.401 2.39516 475.401 2.39525C475.401 2.39533 475.401 2.39542 475.401 2.3955C475.401 2.39558 475.401 2.39567 475.401 2.39575C475.401 2.39583 475.401 2.39592 475.401 2.396C475.401 2.39608 475.401 2.39617 475.401 2.39625C475.401 2.39633 475.401 2.39642 475.401 2.3965C475.401 2.39658 475.401 2.39667 475.401 2.39675C475.401 2.39683 475.401 2.39692 475.401 2.397C475.401 2.39708 475.401 2.39717 475.401 2.39725C475.401 2.39733 475.401 2.39742 475.401 2.3975C475.401 2.39758 475.401 2.39767 475.401 2.39775C475.401 2.39783 475.401 2.39791 475.401 2.398C475.401 2.39808 475.401 2.39816 475.401 2.39825C475.401 2.39833 475.401 2.39841 475.401 2.3985C475.401 2.39858 475.401 2.39866 475.401 2.39875C475.401 2.39883 475.401 2.39892 475.401 2.399C475.401 2.39908 475.401 2.39917 475.401 2.39925C475.401 2.39933 475.401 2.39942 475.401 2.3995C475.401 2.39958 475.401 2.39967 475.401 2.39975C475.401 2.39983 475.401 2.39992 475.401 2.4C475.401 2.40008 475.401 2.40017 475.401 2.40025C475.401 2.40033 475.401 2.40042 475.401 2.4005C475.401 2.40058 475.401 2.40067 475.401 2.40075C475.401 2.40083 475.401 2.40092 475.401 2.401C475.401 2.40108 475.401 2.40117 475.401 2.40125C475.401 2.40133 475.401 2.40141 475.401 2.4015C475.401 2.40158 475.401 2.40166 475.401 2.40175C475.401 2.40183 475.401 2.40191 475.401 2.402C475.401 2.40208 475.401 2.40216 475.401 2.40225C475.401 2.40233 475.401 2.40242 475.401 2.4025C475.401 2.40258 475.401 2.40267 475.401 2.40275C475.401 2.40283 475.401 2.40292 475.401 2.403C475.401 2.40308 475.401 2.40317 475.401 2.40325C475.401 2.40333 475.401 2.40342 475.401 2.4035C475.401 2.40358 475.401 2.40367 475.401 2.40375C475.401 2.40383 475.401 2.40392 475.401 2.404C475.401 2.40408 475.401 2.40417 475.401 2.40425C475.401 2.40433 475.401 2.40442 475.401 2.4045C475.401 2.40458 475.401 2.40466 475.401 2.40475C475.401 2.40483 475.401 2.40491 475.401 2.405C475.401 2.40508 475.401 2.40516 475.401 2.40525C475.401 2.40533 475.401 2.40541 475.401 2.4055C475.401 2.40558 475.401 2.40566 475.401 2.40575C475.401 2.40583 475.401 2.40591 475.401 2.406C475.401 2.40608 475.401 2.40617 475.401 2.40625C475.401 2.40633 475.401 2.40642 475.401 2.4065C475.401 2.40658 475.401 2.40667 475.401 2.40675C475.401 2.40683 475.401 2.40692 475.401 2.407C475.401 2.40708 475.401 2.40717 475.401 2.40725C475.401 2.40733 475.401 2.40742 475.401 2.4075C475.401 2.40758 475.401 2.40767 475.401 2.40775C475.401 2.40783 475.401 2.40792 475.401 2.408C475.401 2.40808 475.401 2.40816 475.401 2.40825C475.401 2.40833 475.401 2.40841 475.401 2.4085C475.401 2.40858 475.401 2.40866 475.401 2.40875C475.401 2.40883 475.401 2.40891 475.401 2.409C475.401 2.40908 475.401 2.40916 475.401 2.40925C475.401 2.40933 475.401 2.40941 475.401 2.4095C475.401 2.40958 475.401 2.40967 475.401 2.40975C475.401 2.40983 475.401 2.40992 475.401 2.41C475.401 2.41008 475.401 2.41017 475.401 2.41025C475.401 2.41033 475.401 2.41042 475.401 2.4105C475.401 2.41058 475.401 2.41067 475.401 2.41075C475.401 2.41083 475.401 2.41092 475.401 2.411C475.401 2.41108 475.401 2.41117 475.401 2.41125C475.401 2.41133 475.401 2.41142 475.401 2.4115C475.401 2.41158 475.401 2.41166 475.401 2.41175C475.401 2.41183 475.401 2.41191 475.401 2.412C475.401 2.41208 475.401 2.41216 475.401 2.41225C475.401 2.41233 475.401 2.41241 475.401 2.4125C475.401 2.41258 475.401 2.41266 475.401 2.41275C475.401 2.41283 475.401 2.41291 475.401 2.413C475.401 2.41308 475.401 2.41317 475.401 2.41325C475.401 2.41333 475.401 2.41342 475.401 2.4135C475.401 2.41358 475.401 2.41367 475.401 2.41375C475.401 2.41383 475.401 2.41392 475.401 2.414C475.401 2.41408 475.401 2.41417 475.401 2.41425C475.401 2.41433 475.401 2.41442 475.401 2.4145C475.401 2.41458 475.401 2.41467 475.401 2.41475C475.401 2.41483 475.401 2.41492 475.401 2.415C475.401 2.41508 475.401 2.41516 475.401 2.41525C475.401 2.41533 475.401 2.41541 475.401 2.4155C475.401 2.41558 475.401 2.41566 475.401 2.41575C475.401 2.41583 475.401 2.41591 475.401 2.416C475.401 2.41608 475.401 2.41616 475.401 2.41625C475.401 2.41633 475.401 2.41641 475.401 2.4165C475.401 2.41658 475.401 2.41667 475.401 2.41675C475.401 2.41683 475.401 2.41692 475.401 2.417C475.401 2.41708 475.401 2.41717 475.401 2.41725C475.401 2.41733 475.401 2.41742 475.401 2.4175C475.401 2.41758 475.401 2.41767 475.401 2.41775C475.401 2.41783 475.401 2.41792 475.401 2.418C475.401 2.41808 475.401 2.41817 475.401 2.41825C475.401 2.41833 475.401 2.41842 475.401 2.4185C475.401 2.41858 475.401 2.41866 475.401 2.41875C475.401 2.41883 475.401 2.41891 475.401 2.419C475.401 2.41908 475.401 2.41916 475.401 2.41925C475.401 2.41933 475.401 2.41941 475.401 2.4195C475.401 2.41958 475.401 2.41966 475.401 2.41975C475.401 2.41983 475.401 2.41991 475.401 2.42C475.401 2.42008 475.401 2.42017 475.401 2.42025C475.401 2.42033 475.401 2.42042 475.401 2.4205C475.401 2.42058 475.401 2.42067 475.401 2.42075C475.401 2.42083 475.401 2.42092 475.401 2.421C475.401 2.42108 475.401 2.42117 475.401 2.42125C475.401 2.42133 475.401 2.42142 475.401 2.4215C475.401 2.42158 475.401 2.42167 475.401 2.42175C475.401 2.42183 475.401 2.42192 475.401 2.422C475.401 2.42208 475.401 2.42216 475.401 2.42225C475.401 2.42233 475.401 2.42241 475.401 2.4225C475.401 2.42258 475.401 2.42266 475.401 2.42275C475.401 2.42283 475.401 2.42291 475.401 2.423C475.401 2.42308 475.401 2.42316 475.401 2.42325C475.401 2.42333 475.401 2.42341 475.401 2.4235C475.401 2.42358 475.401 2.42366 475.401 2.42375C475.401 2.42383 475.401 2.42392 475.401 2.424C475.401 2.42408 475.401 2.42417 475.401 2.42425C475.401 2.42433 475.401 2.42442 475.401 2.4245C475.401 2.42458 475.401 2.42467 475.401 2.42475C475.401 2.42483 475.401 2.42492 475.401 2.425C475.401 2.42508 475.401 2.42517 475.401 2.42525C475.401 2.42533 475.401 2.42542 475.401 2.4255C475.401 2.42558 475.401 2.42566 475.401 2.42575C475.401 2.42583 475.401 2.42591 475.401 2.426C475.401 2.42608 475.401 2.42616 475.401 2.42625C475.401 2.42633 475.401 2.42641 475.401 2.4265C475.401 2.42658 475.401 2.42666 475.401 2.42675C475.401 2.42683 475.401 2.42691 475.401 2.427C475.401 2.42708 475.401 2.42716 475.401 2.42725C475.401 2.42733 475.401 2.42742 475.401 2.4275C475.401 2.42758 475.401 2.42767 475.401 2.42775C475.401 2.42783 475.401 2.42792 475.401 2.428C475.401 2.42808 475.401 2.42817 475.401 2.42825C475.401 2.42833 475.401 2.42842 475.401 2.4285C475.401 2.42858 475.401 2.42867 475.401 2.42875C475.401 2.42883 475.401 2.42892 475.401 2.429C475.401 2.42908 475.401 2.42916 475.401 2.42925C475.401 2.42933 475.401 2.42941 475.401 2.4295C475.401 2.42958 475.401 2.42966 475.401 2.42975C475.401 2.42983 475.401 2.42991 475.401 2.43C475.401 2.43008 475.401 2.43016 475.401 2.43025C475.401 2.43033 475.401 2.43041 475.401 2.4305C475.401 2.43058 475.401 2.43066 475.401 2.43075C475.401 2.43083 475.401 2.43092 475.401 2.431C475.401 2.43108 475.401 2.43117 475.401 2.43125C475.401 2.43133 475.401 2.43142 475.401 2.4315C475.401 2.43158 475.401 2.43167 475.401 2.43175C475.401 2.43183 475.401 2.43192 475.401 2.432C475.401 2.43208 475.401 2.43217 475.401 2.43225C475.401 2.43233 475.401 2.43242 475.401 2.4325C475.401 2.43258 475.401 2.43266 475.401 2.43275C475.401 2.43283 475.401 2.43291 475.401 2.433C475.401 2.43308 475.401 2.43316 475.401 2.43325C475.401 2.43333 475.401 2.43341 475.401 2.4335C475.401 2.43358 475.401 2.43366 475.401 2.43375C475.401 2.43383 475.401 2.43391 475.401 2.434C475.401 2.43408 475.401 2.43416 475.401 2.43425C475.401 2.43433 475.401 2.43442 475.401 2.4345C475.401 2.43458 475.401 2.43467 475.401 2.43475C475.401 2.43483 475.401 2.43492 475.401 2.435C475.401 2.43508 475.401 2.43517 475.401 2.43525C475.401 2.43533 475.401 2.43542 475.401 2.4355C475.401 2.43558 475.401 2.43567 475.401 2.43575C475.401 2.43583 475.401 2.43591 475.401 2.436C475.401 2.43608 475.401 2.43616 475.401 2.43625C475.401 2.43633 475.401 2.43641 475.401 2.4365C475.401 2.43658 475.401 2.43666 475.401 2.43675C475.401 2.43683 475.401 2.43691 475.401 2.437C475.401 2.43708 475.401 2.43716 475.401 2.43725C475.401 2.43733 475.401 2.43741 475.401 2.4375C475.401 2.43758 475.401 2.43766 475.401 2.43775C475.401 2.43783 475.401 2.43791 475.401 2.438C475.401 2.43808 475.401 2.43817 475.401 2.43825C475.401 2.43833 475.401 2.43842 475.401 2.4385C475.401 2.43858 475.401 2.43867 475.401 2.43875C475.401 2.43883 475.401 2.43892 475.401 2.439C475.401 2.43908 475.401 2.43917 475.401 2.43925C475.401 2.43933 475.401 2.43941 475.401 2.4395C475.401 2.43958 475.401 2.43966 475.401 2.43975C475.401 2.43983 475.401 2.43991 475.401 2.44C475.401 2.44008 475.401 2.44016 475.401 2.44025C475.401 2.44033 475.401 2.44041 475.401 2.4405C475.401 2.44058 475.401 2.44066 475.401 2.44075C475.401 2.44083 475.401 2.44091 475.401 2.441C475.401 2.44108 475.401 2.44116 475.401 2.44125C475.401 2.44133 475.401 2.44141 475.401 2.4415C475.401 2.44158 475.401 2.44167 475.401 2.44175C475.401 2.44183 475.401 2.44192 475.401 2.442C475.401 2.44208 475.401 2.44217 475.401 2.44225C475.401 2.44233 475.401 2.44242 475.401 2.4425C475.401 2.44258 475.401 2.44267 475.401 2.44275C475.401 2.44283 475.401 2.44291 475.401 2.443C475.401 2.44308 475.401 2.44316 475.401 2.44325C475.401 2.44333 475.401 2.44341 475.401 2.4435C475.401 2.44358 475.401 2.44366 475.401 2.44375C475.401 2.44383 475.401 2.44391 475.401 2.444C475.401 2.44408 475.401 2.44416 475.401 2.44425C475.401 2.44433 475.401 2.44441 475.401 2.4445C475.401 2.44458 475.401 2.44466 475.401 2.44475C475.401 2.44483 475.401 2.44491 475.401 2.445C475.401 2.44508 475.401 2.44517 475.401 2.44525C475.401 2.44533 475.401 2.44542 475.401 2.4455C475.401 2.44558 475.401 2.44567 475.401 2.44575C475.401 2.44583 475.401 2.44592 475.401 2.446C475.401 2.44608 475.401 2.44617 475.401 2.44625C475.401 2.44633 475.401 2.44641 475.401 2.4465C475.401 2.44658 475.401 2.44666 475.401 2.44675C475.401 2.44683 475.401 2.44691 475.401 2.447C475.401 2.44708 475.401 2.44716 475.401 2.44725C475.401 2.44733 475.401 2.44741 475.401 2.4475C475.401 2.44758 475.401 2.44766 475.401 2.44775C475.401 2.44783 475.401 2.44791 475.401 2.448C475.401 2.44808 475.401 2.44816 475.401 2.44825C475.401 2.44833 475.401 2.44841 475.401 2.4485C475.401 2.44858 475.401 2.44867 475.401 2.44875C475.401 2.44883 475.401 2.44892 475.401 2.449C475.401 2.44908 475.401 2.44917 475.401 2.44925C475.401 2.44933 475.401 2.44942 475.401 2.4495C475.401 2.44958 475.401 2.44967 475.401 2.44975C475.401 2.44983 475.401 2.44991 475.401 2.45C475.401 2.45008 475.401 2.45016 475.401 2.45025C475.401 2.45033 475.401 2.45041 475.401 2.4505C475.401 2.45058 475.401 2.45066 475.401 2.45075C475.401 2.45083 475.401 2.45091 475.401 2.451C475.401 2.45108 475.401 2.45116 475.401 2.45125C475.401 2.45133 475.401 2.45141 475.401 2.4515C475.401 2.45158 475.401 2.45166 475.401 2.45175C475.401 2.45183 475.401 2.45191 475.401 2.452C475.401 2.45208 475.401 2.45217 475.401 2.45225C475.401 2.45233 475.401 2.45242 475.401 2.4525C475.401 2.45258 475.401 2.45267 475.401 2.45275C475.401 2.45283 475.401 2.45292 475.401 2.453C475.401 2.45308 475.401 2.45317 475.401 2.45325C475.401 2.45333 475.401 2.45341 475.401 2.4535C475.401 2.45358 475.401 2.45366 475.401 2.45375C475.401 2.45383 475.401 2.45391 475.401 2.454C475.401 2.45408 475.401 2.45416 475.401 2.45425C475.401 2.45433 475.401 2.45441 475.401 2.4545C475.401 2.45458 475.401 2.45466 475.401 2.45475C475.401 2.45483 475.401 2.45491 475.401 2.455C475.401 2.45508 475.401 2.45516 475.401 2.45525C475.401 2.45533 475.401 2.45541 475.401 2.4555C475.401 2.45558 475.401 2.45566 475.401 2.45575C475.401 2.45583 475.401 2.45592 475.401 2.456C475.401 2.45608 475.401 2.45617 475.401 2.45625C475.401 2.45633 475.401 2.45642 475.401 2.4565C475.401 2.45658 475.401 2.45667 475.401 2.45675C475.401 2.45683 475.401 2.45691 475.401 2.457C475.401 2.45708 475.401 2.45716 475.401 2.45725C475.401 2.45733 475.401 2.45741 475.401 2.4575C475.401 2.45758 475.401 2.45766 475.401 2.45775C475.401 2.45783 475.401 2.45791 475.401 2.458C475.401 2.45808 475.401 2.45816 475.401 2.45825C475.401 2.45833 475.401 2.45841 475.401 2.4585C475.401 2.45858 475.401 2.45866 475.401 2.45875C475.401 2.45883 475.401 2.45891 475.401 2.459C475.401 2.45908 475.401 2.45916 475.401 2.45925C475.401 2.45933 475.401 2.45942 475.401 2.4595C475.401 2.45958 475.401 2.45967 475.401 2.45975C475.401 2.45983 475.401 2.45992 475.401 2.46C475.401 2.46008 475.401 2.46017 475.401 2.46025C475.401 2.46033 475.401 2.46041 475.401 2.4605C475.401 2.46058 475.401 2.46066 475.401 2.46075C475.401 2.46083 475.401 2.46091 475.401 2.461C475.401 2.46108 475.401 2.46116 475.401 2.46125C475.401 2.46133 475.401 2.46141 475.401 2.4615C475.401 2.46158 475.401 2.46166 475.401 2.46175C475.401 2.46183 475.401 2.46191 475.401 2.462C475.401 2.46208 475.401 2.46216 475.401 2.46225C475.401 2.46233 475.401 2.46241 475.401 2.4625C475.401 2.46258 475.401 2.46266 475.401 2.46275C475.401 2.46283 475.401 2.46292 475.401 2.463C475.401 2.46308 475.401 2.46317 475.401 2.46325C475.401 2.46333 475.401 2.46342 475.401 2.4635C475.401 2.46358 475.401 2.46367 475.401 2.46375C475.401 2.46383 475.401 2.46391 475.401 2.464C475.401 2.46408 475.401 2.46416 475.401 2.46425C475.401 2.46433 475.401 2.46441 475.401 2.4645C475.401 2.46458 475.401 2.46466 475.401 2.46475C475.401 2.46483 475.401 2.46491 475.401 2.465C475.401 2.46508 475.401 2.46516 475.401 2.46525C475.401 2.46533 475.401 2.46541 475.401 2.4655C475.401 2.46558 475.401 2.46566 475.401 2.46575C475.401 2.46583 475.401 2.46591 475.401 2.466C475.401 2.46608 475.401 2.46616 475.401 2.46625C475.401 2.46633 475.401 2.46642 475.401 2.4665C475.401 2.46658 475.401 2.46667 475.401 2.46675C475.401 2.46683 475.401 2.46692 475.401 2.467C475.401 2.46708 475.401 2.46716 475.401 2.46725C475.401 2.46733 475.401 2.46741 475.401 2.4675C475.401 2.46758 475.401 2.46766 475.401 2.46775C475.401 2.46783 475.401 2.46791 475.401 2.468C475.401 2.46808 475.401 2.46816 475.401 2.46825C475.401 2.46833 475.401 2.46841 475.401 2.4685C475.401 2.46858 475.401 2.46866 475.401 2.46875C475.401 2.46883 475.401 2.46891 475.401 2.469C475.401 2.46908 475.401 2.46916 475.401 2.46925C475.401 2.46933 475.401 2.46941 475.401 2.4695C475.401 2.46958 475.401 2.46966 475.401 2.46975C475.401 2.46983 475.401 2.46991 475.401 2.47C475.401 2.47008 475.401 2.47017 475.401 2.47025C475.401 2.47033 475.401 2.47042 475.401 2.4705C475.401 2.47058 475.401 2.47066 475.401 2.47075C475.401 2.47083 475.401 2.47091 475.401 2.471C475.401 2.47108 475.401 2.47116 475.401 2.47125C475.401 2.47133 475.401 2.47141 475.401 2.4715C475.401 2.47158 475.401 2.47166 475.401 2.47175C475.401 2.47183 475.401 2.47191 475.401 2.472C475.401 2.47208 475.401 2.47216 475.401 2.47225C475.401 2.47233 475.401 2.47241 475.401 2.4725C475.401 2.47258 475.401 2.47266 475.401 2.47275C475.401 2.47283 475.401 2.47291 475.401 2.473C475.401 2.47308 475.401 2.47316 475.401 2.47325C475.401 2.47333 475.401 2.47341 475.401 2.4735C475.401 2.47358 475.401 2.47367 475.401 2.47375C475.401 2.47383 475.401 2.47392 475.401 2.474C475.401 2.47408 475.401 2.47416 475.401 2.47425C475.401 2.47433 475.401 2.47441 475.401 2.4745C475.401 2.47458 475.401 2.47466 475.401 2.47475C475.401 2.47483 475.401 2.47491 475.401 2.475C475.401 2.47508 475.401 2.47516 475.401 2.47525C475.401 2.47533 475.401 2.47541 475.401 2.4755C475.401 2.47558 475.401 2.47566 475.401 2.47575C475.401 2.47583 475.401 2.47591 475.401 2.476C475.401 2.47608 475.401 2.47616 475.401 2.47625C475.401 2.47633 475.401 2.47641 475.401 2.4765C475.401 2.47658 475.401 2.47666 475.401 2.47675C475.401 2.47683 475.401 2.47691 475.401 2.477C475.401 2.47708 475.401 2.47717 475.401 2.47725C475.401 2.47733 475.401 2.47742 475.401 2.4775C475.401 2.47758 475.401 2.47766 475.401 2.47775C475.401 2.47783 475.401 2.47791 475.401 2.478C475.401 2.47808 475.401 2.47816 475.401 2.47825C475.401 2.47833 475.401 2.47841 475.401 2.4785C475.401 2.47858 475.401 2.47866 475.401 2.47875C475.401 2.47883 475.401 2.47891 475.401 2.479C475.401 2.47908 475.401 2.47916 475.401 2.47925C475.401 2.47933 475.401 2.47941 475.401 2.4795C475.401 2.47958 475.401 2.47966 475.401 2.47975C475.401 2.47983 475.401 2.47991 475.401 2.48C475.401 2.48008 475.401 2.48016 475.401 2.48025C475.401 2.48033 475.401 2.48041 475.401 2.4805C475.401 2.48058 475.401 2.48067 475.401 2.48075C475.401 2.48083 475.401 2.48092 475.401 2.481C475.401 2.48108 475.401 2.48116 475.401 2.48125C475.401 2.48133 475.401 2.48141 475.401 2.4815C475.401 2.48158 475.401 2.48166 475.401 2.48175C475.401 2.48183 475.401 2.48191 475.401 2.482C475.401 2.48208 475.401 2.48216 475.401 2.48225C475.401 2.48233 475.401 2.48241 475.401 2.4825C475.401 2.48258 475.401 2.48266 475.401 2.48275C475.401 2.48283 475.401 2.48291 475.401 2.483C475.401 2.48308 475.401 2.48316 475.401 2.48325C475.401 2.48333 475.401 2.48341 475.401 2.4835C475.401 2.48358 475.401 2.48366 475.401 2.48375C475.401 2.48383 475.401 2.48391 475.401 2.484C475.401 2.48408 475.401 2.48417 475.401 2.48425C475.401 2.48433 475.401 2.48442 475.401 2.4845C475.401 2.48458 475.401 2.48466 475.401 2.48475C475.401 2.48483 475.401 2.48491 475.401 2.485C475.401 2.48508 475.401 2.48516 475.401 2.48525C475.401 2.48533 475.401 2.48541 475.401 2.4855C475.401 2.48558 475.401 2.48566 475.401 2.48575C475.401 2.48583 475.401 2.48591 475.401 2.486C475.401 2.48608 475.401 2.48616 475.401 2.48625C475.401 2.48633 475.401 2.48641 475.401 2.4865C475.401 2.48658 475.401 2.48666 475.401 2.48675C475.401 2.48683 475.401 2.48691 475.401 2.487C475.401 2.48708 475.401 2.48716 475.401 2.48725C475.401 2.48733 475.401 2.48741 475.401 2.4875C475.401 2.48758 475.401 2.48766 475.401 2.48775C475.401 2.48783 475.401 2.48792 475.401 2.488C475.401 2.48808 475.401 2.48816 475.401 2.48825C475.401 2.48833 475.401 2.48841 475.401 2.4885C475.401 2.48858 475.401 2.48866 475.401 2.48875C475.401 2.48883 475.401 2.48891 475.401 2.489C475.401 2.48908 475.401 2.48916 475.401 2.48925C475.401 2.48933 475.401 2.48941 475.401 2.4895C475.401 2.48958 475.401 2.48966 475.401 2.48975C475.401 2.48983 475.401 2.48991 475.401 2.49C475.401 2.49008 475.401 2.49016 475.401 2.49025C475.401 2.49033 475.401 2.49041 475.401 2.4905C475.401 2.49058 475.401 2.49066 475.401 2.49075C475.401 2.49083 475.401 2.49091 475.401 2.491C475.401 2.49108 475.401 2.49116 475.401 2.49125C475.401 2.49133 475.401 2.49142 475.401 2.4915C475.401 2.49158 475.401 2.49166 475.401 2.49175C475.401 2.49183 475.401 2.49191 475.401 2.492C475.401 2.49208 475.401 2.49216 475.401 2.49225C475.401 2.49233 475.401 2.49241 475.401 2.4925C475.401 2.49258 475.401 2.49266 475.401 2.49275C475.401 2.49283 475.401 2.49291 475.401 2.493C475.401 2.49308 475.401 2.49316 475.401 2.49325C475.401 2.49333 475.401 2.49341 475.401 2.4935C475.401 2.49358 475.401 2.49366 475.401 2.49375C475.401 2.49383 475.401 2.49391 475.401 2.494C475.401 2.49408 475.401 2.49416 475.401 2.49425C475.401 2.49433 475.401 2.49441 475.401 2.4945C475.401 2.49458 475.401 2.49466 475.401 2.49475C475.401 2.49483 475.401 2.49492 475.401 2.495C475.401 2.49508 475.401 2.49516 475.401 2.49525C475.401 2.49533 475.401 2.49541 475.401 2.4955C475.401 2.49558 475.401 2.49566 475.401 2.49575C475.401 2.49583 475.401 2.49591 475.401 2.496C475.401 2.49608 475.401 2.49616 475.401 2.49625C475.401 2.49633 475.401 2.49641 475.401 2.4965C475.401 2.49658 475.401 2.49666 475.401 2.49675C475.401 2.49683 475.401 2.49691 475.401 2.497C475.401 2.49708 475.401 2.49716 475.401 2.49725C475.401 2.49733 475.401 2.49741 475.401 2.4975C475.401 2.49758 475.401 2.49766 475.401 2.49775C475.401 2.49783 475.401 2.49791 475.401 2.498C475.401 2.49808 475.401 2.49816 475.401 2.49825C475.401 2.49833 475.401 2.49841 475.401 2.4985C475.401 2.49858 475.401 2.49866 475.401 2.49875C475.401 2.49883 475.401 2.49891 475.401 2.499C475.401 2.49908 475.401 2.49916 475.401 2.49925C475.401 2.49933 475.401 2.49941 475.401 2.4995C475.401 2.49958 475.401 2.49966 475.401 2.49975C475.401 2.49983 475.401 2.49991 475.401 2.5C475.401 2.50008 475.401 2.50016 475.401 2.50025C475.401 2.50033 475.401 2.50041 475.401 2.5005C475.401 2.50058 475.401 2.50066 475.401 2.50075C475.401 2.50083 475.401 2.50091 475.401 2.501C475.401 2.50108 475.401 2.50116 475.401 2.50125C475.401 2.50133 475.401 2.50141 475.401 2.5015C475.401 2.50158 475.401 2.50166 475.401 2.50175C475.401 2.50183 475.401 2.50191 475.401 2.502C475.401 2.50208 475.401 2.50216 475.401 2.50225C475.401 2.50233 475.401 2.50241 475.401 2.5025C475.401 2.50258 475.401 2.50266 475.401 2.50275C475.401 2.50283 475.401 2.50291 475.401 2.503C475.401 2.50308 475.401 2.50316 475.401 2.50325C475.401 2.50333 475.401 2.50341 475.401 2.5035C475.401 2.50358 475.401 2.50366 475.401 2.50375C475.401 2.50383 475.401 2.50391 475.401 2.504C475.401 2.50408 475.401 2.50416 475.401 2.50425C475.401 2.50433 475.401 2.50441 475.401 2.5045C475.401 2.50458 475.401 2.50466 475.401 2.50475C475.401 2.50483 475.401 2.50491 475.401 2.505C475.401 2.50508 475.401 2.50516 475.401 2.50525C475.401 2.50533 475.401 2.50541 475.401 2.5055C475.401 2.50558 475.401 2.50566 475.401 2.50575C475.401 2.50583 475.401 2.50591 475.401 2.506C475.401 2.50608 475.401 2.50616 475.401 2.50625C475.401 2.50633 475.401 2.50641 475.401 2.5065C475.401 2.50658 475.401 2.50666 475.401 2.50675C475.401 2.50683 475.401 2.50691 475.401 2.507C475.401 2.50708 475.401 2.50716 475.401 2.50725C475.401 2.50733 475.401 2.50741 475.401 2.5075C475.401 2.50758 475.401 2.50766 475.401 2.50775C475.401 2.50783 475.401 2.50791 475.401 2.508C475.401 2.50808 475.401 2.50816 475.401 2.50825C475.401 2.50833 475.401 2.50841 475.401 2.5085C475.401 2.50858 475.401 2.50866 475.401 2.50875C475.401 2.50883 475.401 2.50891 475.401 2.509C475.401 2.50908 475.401 2.50916 475.401 2.50925C475.401 2.50933 475.401 2.50941 475.401 2.5095C475.401 2.50958 475.401 2.50966 475.401 2.50975C475.401 2.50983 475.401 2.50991 475.401 2.51C475.401 2.51008 475.401 2.51016 475.401 2.51025C475.401 2.51033 475.401 2.51041 475.401 2.5105C475.401 2.51058 475.401 2.51066 475.401 2.51075C475.401 2.51083 475.401 2.51091 475.401 2.511C475.401 2.51108 475.401 2.51116 475.401 2.51125C475.401 2.51133 475.401 2.51141 475.401 2.5115C475.401 2.51158 475.401 2.51166 475.401 2.51175C475.401 2.51183 475.401 2.51191 475.401 2.512H477.401C477.401 2.51191 477.401 2.51183 477.401 2.51175C477.401 2.51166 477.401 2.51158 477.401 2.5115C477.401 2.51141 477.401 2.51133 477.401 2.51125C477.401 2.51116 477.401 2.51108 477.401 2.511C477.401 2.51091 477.401 2.51083 477.401 2.51075C477.401 2.51066 477.401 2.51058 477.401 2.5105C477.401 2.51041 477.401 2.51033 477.401 2.51025C477.401 2.51016 477.401 2.51008 477.401 2.51C477.401 2.50991 477.401 2.50983 477.401 2.50975C477.401 2.50966 477.401 2.50958 477.401 2.5095C477.401 2.50941 477.401 2.50933 477.401 2.50925C477.401 2.50916 477.401 2.50908 477.401 2.509C477.401 2.50891 477.401 2.50883 477.401 2.50875C477.401 2.50866 477.401 2.50858 477.401 2.5085C477.401 2.50841 477.401 2.50833 477.401 2.50825C477.401 2.50816 477.401 2.50808 477.401 2.508C477.401 2.50791 477.401 2.50783 477.401 2.50775C477.401 2.50766 477.401 2.50758 477.401 2.5075C477.401 2.50741 477.401 2.50733 477.401 2.50725C477.401 2.50716 477.401 2.50708 477.401 2.507C477.401 2.50691 477.401 2.50683 477.401 2.50675C477.401 2.50666 477.401 2.50658 477.401 2.5065C477.401 2.50641 477.401 2.50633 477.401 2.50625C477.401 2.50616 477.401 2.50608 477.401 2.506C477.401 2.50591 477.401 2.50583 477.401 2.50575C477.401 2.50566 477.401 2.50558 477.401 2.5055C477.401 2.50541 477.401 2.50533 477.401 2.50525C477.401 2.50516 477.401 2.50508 477.401 2.505C477.401 2.50491 477.401 2.50483 477.401 2.50475C477.401 2.50466 477.401 2.50458 477.401 2.5045C477.401 2.50441 477.401 2.50433 477.401 2.50425C477.401 2.50416 477.401 2.50408 477.401 2.504C477.401 2.50391 477.401 2.50383 477.401 2.50375C477.401 2.50366 477.401 2.50358 477.401 2.5035C477.401 2.50341 477.401 2.50333 477.401 2.50325C477.401 2.50316 477.401 2.50308 477.401 2.503C477.401 2.50291 477.401 2.50283 477.401 2.50275C477.401 2.50266 477.401 2.50258 477.401 2.5025C477.401 2.50241 477.401 2.50233 477.401 2.50225C477.401 2.50216 477.401 2.50208 477.401 2.502C477.401 2.50191 477.401 2.50183 477.401 2.50175C477.401 2.50166 477.401 2.50158 477.401 2.5015C477.401 2.50141 477.401 2.50133 477.401 2.50125C477.401 2.50116 477.401 2.50108 477.401 2.501C477.401 2.50091 477.401 2.50083 477.401 2.50075C477.401 2.50066 477.401 2.50058 477.401 2.5005C477.401 2.50041 477.401 2.50033 477.401 2.50025C477.401 2.50016 477.401 2.50008 477.401 2.5C477.401 2.49991 477.401 2.49983 477.401 2.49975C477.401 2.49966 477.401 2.49958 477.401 2.4995C477.401 2.49941 477.401 2.49933 477.401 2.49925C477.401 2.49916 477.401 2.49908 477.401 2.499C477.401 2.49891 477.401 2.49883 477.401 2.49875C477.401 2.49866 477.401 2.49858 477.401 2.4985C477.401 2.49841 477.401 2.49833 477.401 2.49825C477.401 2.49816 477.401 2.49808 477.401 2.498C477.401 2.49791 477.401 2.49783 477.401 2.49775C477.401 2.49766 477.401 2.49758 477.401 2.4975C477.401 2.49741 477.401 2.49733 477.401 2.49725C477.401 2.49716 477.401 2.49708 477.401 2.497C477.401 2.49691 477.401 2.49683 477.401 2.49675C477.401 2.49666 477.401 2.49658 477.401 2.4965C477.401 2.49641 477.401 2.49633 477.401 2.49625C477.401 2.49616 477.401 2.49608 477.401 2.496C477.401 2.49591 477.401 2.49583 477.401 2.49575C477.401 2.49566 477.401 2.49558 477.401 2.4955C477.401 2.49541 477.401 2.49533 477.401 2.49525C477.401 2.49516 477.401 2.49508 477.401 2.495C477.401 2.49492 477.401 2.49483 477.401 2.49475C477.401 2.49466 477.401 2.49458 477.401 2.4945C477.401 2.49441 477.401 2.49433 477.401 2.49425C477.401 2.49416 477.401 2.49408 477.401 2.494C477.401 2.49391 477.401 2.49383 477.401 2.49375C477.401 2.49366 477.401 2.49358 477.401 2.4935C477.401 2.49341 477.401 2.49333 477.401 2.49325C477.401 2.49316 477.401 2.49308 477.401 2.493C477.401 2.49291 477.401 2.49283 477.401 2.49275C477.401 2.49266 477.401 2.49258 477.401 2.4925C477.401 2.49241 477.401 2.49233 477.401 2.49225C477.401 2.49216 477.401 2.49208 477.401 2.492C477.401 2.49191 477.401 2.49183 477.401 2.49175C477.401 2.49166 477.401 2.49158 477.401 2.4915C477.401 2.49142 477.401 2.49133 477.401 2.49125C477.401 2.49116 477.401 2.49108 477.401 2.491C477.401 2.49091 477.401 2.49083 477.401 2.49075C477.401 2.49066 477.401 2.49058 477.401 2.4905C477.401 2.49041 477.401 2.49033 477.401 2.49025C477.401 2.49016 477.401 2.49008 477.401 2.49C477.401 2.48991 477.401 2.48983 477.401 2.48975C477.401 2.48966 477.401 2.48958 477.401 2.4895C477.401 2.48941 477.401 2.48933 477.401 2.48925C477.401 2.48916 477.401 2.48908 477.401 2.489C477.401 2.48891 477.401 2.48883 477.401 2.48875C477.401 2.48866 477.401 2.48858 477.401 2.4885C477.401 2.48841 477.401 2.48833 477.401 2.48825C477.401 2.48816 477.401 2.48808 477.401 2.488C477.401 2.48792 477.401 2.48783 477.401 2.48775C477.401 2.48766 477.401 2.48758 477.401 2.4875C477.401 2.48741 477.401 2.48733 477.401 2.48725C477.401 2.48716 477.401 2.48708 477.401 2.487C477.401 2.48691 477.401 2.48683 477.401 2.48675C477.401 2.48666 477.401 2.48658 477.401 2.4865C477.401 2.48641 477.401 2.48633 477.401 2.48625C477.401 2.48616 477.401 2.48608 477.401 2.486C477.401 2.48591 477.401 2.48583 477.401 2.48575C477.401 2.48566 477.401 2.48558 477.401 2.4855C477.401 2.48541 477.401 2.48533 477.401 2.48525C477.401 2.48516 477.401 2.48508 477.401 2.485C477.401 2.48491 477.401 2.48483 477.401 2.48475C477.401 2.48466 477.401 2.48458 477.401 2.4845C477.401 2.48442 477.401 2.48433 477.401 2.48425C477.401 2.48417 477.401 2.48408 477.401 2.484C477.401 2.48391 477.401 2.48383 477.401 2.48375C477.401 2.48366 477.401 2.48358 477.401 2.4835C477.401 2.48341 477.401 2.48333 477.401 2.48325C477.401 2.48316 477.401 2.48308 477.401 2.483C477.401 2.48291 477.401 2.48283 477.401 2.48275C477.401 2.48266 477.401 2.48258 477.401 2.4825C477.401 2.48241 477.401 2.48233 477.401 2.48225C477.401 2.48216 477.401 2.48208 477.401 2.482C477.401 2.48191 477.401 2.48183 477.401 2.48175C477.401 2.48166 477.401 2.48158 477.401 2.4815C477.401 2.48141 477.401 2.48133 477.401 2.48125C477.401 2.48116 477.401 2.48108 477.401 2.481C477.401 2.48092 477.401 2.48083 477.401 2.48075C477.401 2.48067 477.401 2.48058 477.401 2.4805C477.401 2.48041 477.401 2.48033 477.401 2.48025C477.401 2.48016 477.401 2.48008 477.401 2.48C477.401 2.47991 477.401 2.47983 477.401 2.47975C477.401 2.47966 477.401 2.47958 477.401 2.4795C477.401 2.47941 477.401 2.47933 477.401 2.47925C477.401 2.47916 477.401 2.47908 477.401 2.479C477.401 2.47891 477.401 2.47883 477.401 2.47875C477.401 2.47866 477.401 2.47858 477.401 2.4785C477.401 2.47841 477.401 2.47833 477.401 2.47825C477.401 2.47816 477.401 2.47808 477.401 2.478C477.401 2.47791 477.401 2.47783 477.401 2.47775C477.401 2.47766 477.401 2.47758 477.401 2.4775C477.401 2.47742 477.401 2.47733 477.401 2.47725C477.401 2.47717 477.401 2.47708 477.401 2.477C477.401 2.47691 477.401 2.47683 477.401 2.47675C477.401 2.47666 477.401 2.47658 477.401 2.4765C477.401 2.47641 477.401 2.47633 477.401 2.47625C477.401 2.47616 477.401 2.47608 477.401 2.476C477.401 2.47591 477.401 2.47583 477.401 2.47575C477.401 2.47566 477.401 2.47558 477.401 2.4755C477.401 2.47541 477.401 2.47533 477.401 2.47525C477.401 2.47516 477.401 2.47508 477.401 2.475C477.401 2.47491 477.401 2.47483 477.401 2.47475C477.401 2.47466 477.401 2.47458 477.401 2.4745C477.401 2.47441 477.401 2.47433 477.401 2.47425C477.401 2.47416 477.401 2.47408 477.401 2.474C477.401 2.47392 477.401 2.47383 477.401 2.47375C477.401 2.47367 477.401 2.47358 477.401 2.4735C477.401 2.47341 477.401 2.47333 477.401 2.47325C477.401 2.47316 477.401 2.47308 477.401 2.473C477.401 2.47291 477.401 2.47283 477.401 2.47275C477.401 2.47266 477.401 2.47258 477.401 2.4725C477.401 2.47241 477.401 2.47233 477.401 2.47225C477.401 2.47216 477.401 2.47208 477.401 2.472C477.401 2.47191 477.401 2.47183 477.401 2.47175C477.401 2.47166 477.401 2.47158 477.401 2.4715C477.401 2.47141 477.401 2.47133 477.401 2.47125C477.401 2.47116 477.401 2.47108 477.401 2.471C477.401 2.47091 477.401 2.47083 477.401 2.47075C477.401 2.47066 477.401 2.47058 477.401 2.4705C477.401 2.47042 477.401 2.47033 477.401 2.47025C477.401 2.47017 477.401 2.47008 477.401 2.47C477.401 2.46991 477.401 2.46983 477.401 2.46975C477.401 2.46966 477.401 2.46958 477.401 2.4695C477.401 2.46941 477.401 2.46933 477.401 2.46925C477.401 2.46916 477.401 2.46908 477.401 2.469C477.401 2.46891 477.401 2.46883 477.401 2.46875C477.401 2.46866 477.401 2.46858 477.401 2.4685C477.401 2.46841 477.401 2.46833 477.401 2.46825C477.401 2.46816 477.401 2.46808 477.401 2.468C477.401 2.46791 477.401 2.46783 477.401 2.46775C477.401 2.46766 477.401 2.46758 477.401 2.4675C477.401 2.46741 477.401 2.46733 477.401 2.46725C477.401 2.46716 477.401 2.46708 477.401 2.467C477.401 2.46692 477.401 2.46683 477.401 2.46675C477.401 2.46667 477.401 2.46658 477.401 2.4665C477.401 2.46642 477.401 2.46633 477.401 2.46625C477.401 2.46616 477.401 2.46608 477.401 2.466C477.401 2.46591 477.401 2.46583 477.401 2.46575C477.401 2.46566 477.401 2.46558 477.401 2.4655C477.401 2.46541 477.401 2.46533 477.401 2.46525C477.401 2.46516 477.401 2.46508 477.401 2.465C477.401 2.46491 477.401 2.46483 477.401 2.46475C477.401 2.46466 477.401 2.46458 477.401 2.4645C477.401 2.46441 477.401 2.46433 477.401 2.46425C477.401 2.46416 477.401 2.46408 477.401 2.464C477.401 2.46391 477.401 2.46383 477.401 2.46375C477.401 2.46367 477.401 2.46358 477.401 2.4635C477.401 2.46342 477.401 2.46333 477.401 2.46325C477.401 2.46317 477.401 2.46308 477.401 2.463C477.401 2.46292 477.401 2.46283 477.401 2.46275C477.401 2.46266 477.401 2.46258 477.401 2.4625C477.401 2.46241 477.401 2.46233 477.401 2.46225C477.401 2.46216 477.401 2.46208 477.401 2.462C477.401 2.46191 477.401 2.46183 477.401 2.46175C477.401 2.46166 477.401 2.46158 477.401 2.4615C477.401 2.46141 477.401 2.46133 477.401 2.46125C477.401 2.46116 477.401 2.46108 477.401 2.461C477.401 2.46091 477.401 2.46083 477.401 2.46075C477.401 2.46066 477.401 2.46058 477.401 2.4605C477.401 2.46041 477.401 2.46033 477.401 2.46025C477.401 2.46017 477.401 2.46008 477.401 2.46C477.401 2.45992 477.401 2.45983 477.401 2.45975C477.401 2.45967 477.401 2.45958 477.401 2.4595C477.401 2.45942 477.401 2.45933 477.401 2.45925C477.401 2.45916 477.401 2.45908 477.401 2.459C477.401 2.45891 477.401 2.45883 477.401 2.45875C477.401 2.45866 477.401 2.45858 477.401 2.4585C477.401 2.45841 477.401 2.45833 477.401 2.45825C477.401 2.45816 477.401 2.45808 477.401 2.458C477.401 2.45791 477.401 2.45783 477.401 2.45775C477.401 2.45766 477.401 2.45758 477.401 2.4575C477.401 2.45741 477.401 2.45733 477.401 2.45725C477.401 2.45716 477.401 2.45708 477.401 2.457C477.401 2.45691 477.401 2.45683 477.401 2.45675C477.401 2.45667 477.401 2.45658 477.401 2.4565C477.401 2.45642 477.401 2.45633 477.401 2.45625C477.401 2.45617 477.401 2.45608 477.401 2.456C477.401 2.45592 477.401 2.45583 477.401 2.45575C477.401 2.45566 477.401 2.45558 477.401 2.4555C477.401 2.45541 477.401 2.45533 477.401 2.45525C477.401 2.45516 477.401 2.45508 477.401 2.455C477.401 2.45491 477.401 2.45483 477.401 2.45475C477.401 2.45466 477.401 2.45458 477.401 2.4545C477.401 2.45441 477.401 2.45433 477.401 2.45425C477.401 2.45416 477.401 2.45408 477.401 2.454C477.401 2.45391 477.401 2.45383 477.401 2.45375C477.401 2.45366 477.401 2.45358 477.401 2.4535C477.401 2.45341 477.401 2.45333 477.401 2.45325C477.401 2.45317 477.401 2.45308 477.401 2.453C477.401 2.45292 477.401 2.45283 477.401 2.45275C477.401 2.45267 477.401 2.45258 477.401 2.4525C477.401 2.45242 477.401 2.45233 477.401 2.45225C477.401 2.45217 477.401 2.45208 477.401 2.452C477.401 2.45191 477.401 2.45183 477.401 2.45175C477.401 2.45166 477.401 2.45158 477.401 2.4515C477.401 2.45141 477.401 2.45133 477.401 2.45125C477.401 2.45116 477.401 2.45108 477.401 2.451C477.401 2.45091 477.401 2.45083 477.401 2.45075C477.401 2.45066 477.401 2.45058 477.401 2.4505C477.401 2.45041 477.401 2.45033 477.401 2.45025C477.401 2.45016 477.401 2.45008 477.401 2.45C477.401 2.44991 477.401 2.44983 477.401 2.44975C477.401 2.44967 477.401 2.44958 477.401 2.4495C477.401 2.44942 477.401 2.44933 477.401 2.44925C477.401 2.44917 477.401 2.44908 477.401 2.449C477.401 2.44892 477.401 2.44883 477.401 2.44875C477.401 2.44867 477.401 2.44858 477.401 2.4485C477.401 2.44841 477.401 2.44833 477.401 2.44825C477.401 2.44816 477.401 2.44808 477.401 2.448C477.401 2.44791 477.401 2.44783 477.401 2.44775C477.401 2.44766 477.401 2.44758 477.401 2.4475C477.401 2.44741 477.401 2.44733 477.401 2.44725C477.401 2.44716 477.401 2.44708 477.401 2.447C477.401 2.44691 477.401 2.44683 477.401 2.44675C477.401 2.44666 477.401 2.44658 477.401 2.4465C477.401 2.44641 477.401 2.44633 477.401 2.44625C477.401 2.44617 477.401 2.44608 477.401 2.446C477.401 2.44592 477.401 2.44583 477.401 2.44575C477.401 2.44567 477.401 2.44558 477.401 2.4455C477.401 2.44542 477.401 2.44533 477.401 2.44525C477.401 2.44517 477.401 2.44508 477.401 2.445C477.401 2.44491 477.401 2.44483 477.401 2.44475C477.401 2.44466 477.401 2.44458 477.401 2.4445C477.401 2.44441 477.401 2.44433 477.401 2.44425C477.401 2.44416 477.401 2.44408 477.401 2.444C477.401 2.44391 477.401 2.44383 477.401 2.44375C477.401 2.44366 477.401 2.44358 477.401 2.4435C477.401 2.44341 477.401 2.44333 477.401 2.44325C477.401 2.44316 477.401 2.44308 477.401 2.443C477.401 2.44291 477.401 2.44283 477.401 2.44275C477.401 2.44267 477.401 2.44258 477.401 2.4425C477.401 2.44242 477.401 2.44233 477.401 2.44225C477.401 2.44217 477.401 2.44208 477.401 2.442C477.401 2.44192 477.401 2.44183 477.401 2.44175C477.401 2.44167 477.401 2.44158 477.401 2.4415C477.401 2.44141 477.401 2.44133 477.401 2.44125C477.401 2.44116 477.401 2.44108 477.401 2.441C477.401 2.44091 477.401 2.44083 477.401 2.44075C477.401 2.44066 477.401 2.44058 477.401 2.4405C477.401 2.44041 477.401 2.44033 477.401 2.44025C477.401 2.44016 477.401 2.44008 477.401 2.44C477.401 2.43991 477.401 2.43983 477.401 2.43975C477.401 2.43966 477.401 2.43958 477.401 2.4395C477.401 2.43941 477.401 2.43933 477.401 2.43925C477.401 2.43917 477.401 2.43908 477.401 2.439C477.401 2.43892 477.401 2.43883 477.401 2.43875C477.401 2.43867 477.401 2.43858 477.401 2.4385C477.401 2.43842 477.401 2.43833 477.401 2.43825C477.401 2.43817 477.401 2.43808 477.401 2.438C477.401 2.43791 477.401 2.43783 477.401 2.43775C477.401 2.43766 477.401 2.43758 477.401 2.4375C477.401 2.43741 477.401 2.43733 477.401 2.43725C477.401 2.43716 477.401 2.43708 477.401 2.437C477.401 2.43691 477.401 2.43683 477.401 2.43675C477.401 2.43666 477.401 2.43658 477.401 2.4365C477.401 2.43641 477.401 2.43633 477.401 2.43625C477.401 2.43616 477.401 2.43608 477.401 2.436C477.401 2.43591 477.401 2.43583 477.401 2.43575C477.401 2.43567 477.401 2.43558 477.401 2.4355C477.401 2.43542 477.401 2.43533 477.401 2.43525C477.401 2.43517 477.401 2.43508 477.401 2.435C477.401 2.43492 477.401 2.43483 477.401 2.43475C477.401 2.43467 477.401 2.43458 477.401 2.4345C477.401 2.43442 477.401 2.43433 477.401 2.43425C477.401 2.43416 477.401 2.43408 477.401 2.434C477.401 2.43391 477.401 2.43383 477.401 2.43375C477.401 2.43366 477.401 2.43358 477.401 2.4335C477.401 2.43341 477.401 2.43333 477.401 2.43325C477.401 2.43316 477.401 2.43308 477.401 2.433C477.401 2.43291 477.401 2.43283 477.401 2.43275C477.401 2.43266 477.401 2.43258 477.401 2.4325C477.401 2.43242 477.401 2.43233 477.401 2.43225C477.401 2.43217 477.401 2.43208 477.401 2.432C477.401 2.43192 477.401 2.43183 477.401 2.43175C477.401 2.43167 477.401 2.43158 477.401 2.4315C477.401 2.43142 477.401 2.43133 477.401 2.43125C477.401 2.43117 477.401 2.43108 477.401 2.431C477.401 2.43092 477.401 2.43083 477.401 2.43075C477.401 2.43066 477.401 2.43058 477.401 2.4305C477.401 2.43041 477.401 2.43033 477.401 2.43025C477.401 2.43016 477.401 2.43008 477.401 2.43C477.401 2.42991 477.401 2.42983 477.401 2.42975C477.401 2.42966 477.401 2.42958 477.401 2.4295C477.401 2.42941 477.401 2.42933 477.401 2.42925C477.401 2.42916 477.401 2.42908 477.401 2.429C477.401 2.42892 477.401 2.42883 477.401 2.42875C477.401 2.42867 477.401 2.42858 477.401 2.4285C477.401 2.42842 477.401 2.42833 477.401 2.42825C477.401 2.42817 477.401 2.42808 477.401 2.428C477.401 2.42792 477.401 2.42783 477.401 2.42775C477.401 2.42767 477.401 2.42758 477.401 2.4275C477.401 2.42742 477.401 2.42733 477.401 2.42725C477.401 2.42716 477.401 2.42708 477.401 2.427C477.401 2.42691 477.401 2.42683 477.401 2.42675C477.401 2.42666 477.401 2.42658 477.401 2.4265C477.401 2.42641 477.401 2.42633 477.401 2.42625C477.401 2.42616 477.401 2.42608 477.401 2.426C477.401 2.42591 477.401 2.42583 477.401 2.42575C477.401 2.42566 477.401 2.42558 477.401 2.4255C477.401 2.42542 477.401 2.42533 477.401 2.42525C477.401 2.42517 477.401 2.42508 477.401 2.425C477.401 2.42492 477.401 2.42483 477.401 2.42475C477.401 2.42467 477.401 2.42458 477.401 2.4245C477.401 2.42442 477.401 2.42433 477.401 2.42425C477.401 2.42417 477.401 2.42408 477.401 2.424C477.401 2.42392 477.401 2.42383 477.401 2.42375C477.401 2.42366 477.401 2.42358 477.401 2.4235C477.401 2.42341 477.401 2.42333 477.401 2.42325C477.401 2.42316 477.401 2.42308 477.401 2.423C477.401 2.42291 477.401 2.42283 477.401 2.42275C477.401 2.42266 477.401 2.42258 477.401 2.4225C477.401 2.42241 477.401 2.42233 477.401 2.42225C477.401 2.42216 477.401 2.42208 477.401 2.422C477.401 2.42192 477.401 2.42183 477.401 2.42175C477.401 2.42167 477.401 2.42158 477.401 2.4215C477.401 2.42142 477.401 2.42133 477.401 2.42125C477.401 2.42117 477.401 2.42108 477.401 2.421C477.401 2.42092 477.401 2.42083 477.401 2.42075C477.401 2.42067 477.401 2.42058 477.401 2.4205C477.401 2.42042 477.401 2.42033 477.401 2.42025C477.401 2.42017 477.401 2.42008 477.401 2.42C477.401 2.41991 477.401 2.41983 477.401 2.41975C477.401 2.41966 477.401 2.41958 477.401 2.4195C477.401 2.41941 477.401 2.41933 477.401 2.41925C477.401 2.41916 477.401 2.41908 477.401 2.419C477.401 2.41891 477.401 2.41883 477.401 2.41875C477.401 2.41866 477.401 2.41858 477.401 2.4185C477.401 2.41842 477.401 2.41833 477.401 2.41825C477.401 2.41817 477.401 2.41808 477.401 2.418C477.401 2.41792 477.401 2.41783 477.401 2.41775C477.401 2.41767 477.401 2.41758 477.401 2.4175C477.401 2.41742 477.401 2.41733 477.401 2.41725C477.401 2.41717 477.401 2.41708 477.401 2.417C477.401 2.41692 477.401 2.41683 477.401 2.41675C477.401 2.41667 477.401 2.41658 477.401 2.4165C477.401 2.41641 477.401 2.41633 477.401 2.41625C477.401 2.41616 477.401 2.41608 477.401 2.416C477.401 2.41591 477.401 2.41583 477.401 2.41575C477.401 2.41566 477.401 2.41558 477.401 2.4155C477.401 2.41541 477.401 2.41533 477.401 2.41525C477.401 2.41516 477.401 2.41508 477.401 2.415C477.401 2.41492 477.401 2.41483 477.401 2.41475C477.401 2.41467 477.401 2.41458 477.401 2.4145C477.401 2.41442 477.401 2.41433 477.401 2.41425C477.401 2.41417 477.401 2.41408 477.401 2.414C477.401 2.41392 477.401 2.41383 477.401 2.41375C477.401 2.41367 477.401 2.41358 477.401 2.4135C477.401 2.41342 477.401 2.41333 477.401 2.41325C477.401 2.41317 477.401 2.41308 477.401 2.413C477.401 2.41291 477.401 2.41283 477.401 2.41275C477.401 2.41266 477.401 2.41258 477.401 2.4125C477.401 2.41241 477.401 2.41233 477.401 2.41225C477.401 2.41216 477.401 2.41208 477.401 2.412C477.401 2.41191 477.401 2.41183 477.401 2.41175C477.401 2.41166 477.401 2.41158 477.401 2.4115C477.401 2.41142 477.401 2.41133 477.401 2.41125C477.401 2.41117 477.401 2.41108 477.401 2.411C477.401 2.41092 477.401 2.41083 477.401 2.41075C477.401 2.41067 477.401 2.41058 477.401 2.4105C477.401 2.41042 477.401 2.41033 477.401 2.41025C477.401 2.41017 477.401 2.41008 477.401 2.41C477.401 2.40992 477.401 2.40983 477.401 2.40975C477.401 2.40967 477.401 2.40958 477.401 2.4095C477.401 2.40941 477.401 2.40933 477.401 2.40925C477.401 2.40916 477.401 2.40908 477.401 2.409C477.401 2.40891 477.401 2.40883 477.401 2.40875C477.401 2.40866 477.401 2.40858 477.401 2.4085C477.401 2.40841 477.401 2.40833 477.401 2.40825C477.401 2.40816 477.401 2.40808 477.401 2.408C477.401 2.40792 477.401 2.40783 477.401 2.40775C477.401 2.40767 477.401 2.40758 477.401 2.4075C477.401 2.40742 477.401 2.40733 477.401 2.40725C477.401 2.40717 477.401 2.40708 477.401 2.407C477.401 2.40692 477.401 2.40683 477.401 2.40675C477.401 2.40667 477.401 2.40658 477.401 2.4065C477.401 2.40642 477.401 2.40633 477.401 2.40625C477.401 2.40617 477.401 2.40608 477.401 2.406C477.401 2.40591 477.401 2.40583 477.401 2.40575C477.401 2.40566 477.401 2.40558 477.401 2.4055C477.401 2.40541 477.401 2.40533 477.401 2.40525C477.401 2.40516 477.401 2.40508 477.401 2.405C477.401 2.40491 477.401 2.40483 477.401 2.40475C477.401 2.40466 477.401 2.40458 477.401 2.4045C477.401 2.40442 477.401 2.40433 477.401 2.40425C477.401 2.40417 477.401 2.40408 477.401 2.404C477.401 2.40392 477.401 2.40383 477.401 2.40375C477.401 2.40367 477.401 2.40358 477.401 2.4035C477.401 2.40342 477.401 2.40333 477.401 2.40325C477.401 2.40317 477.401 2.40308 477.401 2.403C477.401 2.40292 477.401 2.40283 477.401 2.40275C477.401 2.40267 477.401 2.40258 477.401 2.4025C477.401 2.40242 477.401 2.40233 477.401 2.40225C477.401 2.40216 477.401 2.40208 477.401 2.402C477.401 2.40191 477.401 2.40183 477.401 2.40175C477.401 2.40166 477.401 2.40158 477.401 2.4015C477.401 2.40141 477.401 2.40133 477.401 2.40125C477.401 2.40117 477.401 2.40108 477.401 2.401C477.401 2.40092 477.401 2.40083 477.401 2.40075C477.401 2.40067 477.401 2.40058 477.401 2.4005C477.401 2.40042 477.401 2.40033 477.401 2.40025C477.401 2.40017 477.401 2.40008 477.401 2.4C477.401 2.39992 477.401 2.39983 477.401 2.39975C477.401 2.39967 477.401 2.39958 477.401 2.3995C477.401 2.39942 477.401 2.39933 477.401 2.39925C477.401 2.39917 477.401 2.39908 477.401 2.399C477.401 2.39892 477.401 2.39883 477.401 2.39875C477.401 2.39866 477.401 2.39858 477.401 2.3985C477.401 2.39841 477.401 2.39833 477.401 2.39825C477.401 2.39816 477.401 2.39808 477.401 2.398C477.401 2.39791 477.401 2.39783 477.401 2.39775C477.401 2.39767 477.401 2.39758 477.401 2.3975C477.401 2.39742 477.401 2.39733 477.401 2.39725C477.401 2.39717 477.401 2.39708 477.401 2.397C477.401 2.39692 477.401 2.39683 477.401 2.39675C477.401 2.39667 477.401 2.39658 477.401 2.3965C477.401 2.39642 477.401 2.39633 477.401 2.39625C477.401 2.39617 477.401 2.39608 477.401 2.396C477.401 2.39592 477.401 2.39583 477.401 2.39575C477.401 2.39567 477.401 2.39558 477.401 2.3955C477.401 2.39542 477.401 2.39533 477.401 2.39525C477.401 2.39516 477.401 2.39508 477.401 2.395C477.401 2.39491 477.401 2.39483 477.401 2.39475C477.401 2.39466 477.401 2.39458 477.401 2.3945C477.401 2.39441 477.401 2.39433 477.401 2.39425C477.401 2.39417 477.401 2.39408 477.401 2.394C477.401 2.39392 477.401 2.39383 477.401 2.39375C477.401 2.39367 477.401 2.39358 477.401 2.3935C477.401 2.39342 477.401 2.39333 477.401 2.39325C477.401 2.39317 477.401 2.39308 477.401 2.393C477.401 2.39292 477.401 2.39283 477.401 2.39275C477.401 2.39267 477.401 2.39258 477.401 2.3925C477.401 2.39242 477.401 2.39233 477.401 2.39225C477.401 2.39217 477.401 2.39208 477.401 2.392C477.401 2.39192 477.401 2.39183 477.401 2.39175C477.401 2.39166 477.401 2.39158 477.401 2.3915C477.401 2.39141 477.401 2.39133 477.401 2.39125C477.401 2.39116 477.401 2.39108 477.401 2.391C477.401 2.39091 477.401 2.39083 477.401 2.39075C477.401 2.39067 477.401 2.39058 477.401 2.3905C477.401 2.39042 477.401 2.39033 477.401 2.39025C477.401 2.39017 477.401 2.39008 477.401 2.39C477.401 2.38992 477.401 2.38983 477.401 2.38975C477.401 2.38967 477.401 2.38958 477.401 2.3895C477.401 2.38942 477.401 2.38933 477.401 2.38925C477.401 2.38917 477.401 2.38908 477.401 2.389C477.401 2.38892 477.401 2.38883 477.401 2.38875C477.401 2.38867 477.401 2.38858 477.401 2.3885C477.401 2.38842 477.401 2.38833 477.401 2.38825C477.401 2.38817 477.401 2.38808 477.401 2.388C477.401 2.38791 477.401 2.38783 477.401 2.38775C477.401 2.38766 477.401 2.38758 477.401 2.3875C477.401 2.38741 477.401 2.38733 477.401 2.38725C477.401 2.38717 477.401 2.38708 477.401 2.387C477.401 2.38692 477.401 2.38683 477.401 2.38675C477.401 2.38667 477.401 2.38658 477.401 2.3865C477.401 2.38642 477.401 2.38633 477.401 2.38625C477.401 2.38617 477.401 2.38608 477.401 2.386C477.401 2.38592 477.401 2.38583 477.401 2.38575C477.401 2.38567 477.401 2.38558 477.401 2.3855C477.401 2.38542 477.401 2.38533 477.401 2.38525C477.401 2.38517 477.401 2.38508 477.401 2.385C477.401 2.38492 477.401 2.38483 477.401 2.38475C477.401 2.38467 477.401 2.38458 477.401 2.3845C477.401 2.38441 477.401 2.38433 477.401 2.38425C477.401 2.38416 477.401 2.38408 477.401 2.384H475.401ZM475.401 2.512V36.24H477.401V2.512H475.401ZM476.401 35.24H475.761V37.24H476.401V35.24ZM476.761 36.24V2.384H474.761V36.24H476.761ZM476.761 2.384C476.761 2.36604 476.764 2.39754 476.739 2.45414C476.711 2.51653 476.666 2.57127 476.617 2.608L475.417 1.008C474.943 1.36362 474.761 1.88401 474.761 2.384H476.761ZM476.617 2.608C476.639 2.59159 476.641 2.59383 476.624 2.60033C476.605 2.60755 476.572 2.616 476.529 2.616V0.615997C476.093 0.615997 475.717 0.783121 475.417 1.008L476.617 2.608ZM476.529 2.616C476.531 2.616 476.517 2.6161 476.494 2.60952C476.47 2.60271 476.445 2.59131 476.422 2.57604L477.532 0.911955C477.222 0.705286 476.875 0.615997 476.529 0.615997V2.616ZM476.422 2.57605C476.466 2.60485 476.58 2.69696 476.782 2.89911L478.196 1.48489C477.972 1.26037 477.745 1.05381 477.532 0.911945L476.422 2.57605ZM544.365 35.6H545.365V34.6H544.365V35.6ZM544.365 36.24V37.24H545.365V36.24H544.365ZM525.42 34.32L524.725 35.0386L524.731 35.0441L524.737 35.0495L525.42 34.32ZM525.484 3.6L526.168 4.32954V4.32953L525.484 3.6ZM544.365 1.68H545.365V0.679996H544.365V1.68ZM544.365 2.32V3.32H545.365V2.32H544.365ZM526.06 4.112L526.717 4.86608L526.724 4.86015L526.731 4.8541L526.06 4.112ZM525.997 33.872L525.328 34.6153L525.997 33.872ZM543.365 35.6V36.24H545.365V35.6H543.365ZM544.365 35.24H533.677V37.24H544.365V35.24ZM533.677 35.24C531.652 35.24 530.011 35.0828 528.735 34.786C527.45 34.4871 526.609 34.064 526.104 33.5905L524.737 35.0495C525.597 35.856 526.815 36.3929 528.282 36.734C529.758 37.0772 531.563 37.24 533.677 37.24V35.24ZM526.116 33.6014C525.078 32.5965 524.437 30.8142 524.437 27.984H522.437C522.437 31.0418 523.118 33.4835 524.725 35.0386L526.116 33.6014ZM524.437 27.984V10.064H522.437V27.984H524.437ZM524.437 10.064C524.437 7.14569 525.1 5.33122 526.168 4.32954L524.801 2.87046C523.138 4.42878 522.437 6.92364 522.437 10.064H524.437ZM526.168 4.32953C526.675 3.85476 527.511 3.43208 528.785 3.13361C530.05 2.83715 531.674 2.68 533.677 2.68V0.679996C531.583 0.679996 529.794 0.842844 528.328 1.18638C526.871 1.52792 525.659 2.06524 524.801 2.87046L526.168 4.32953ZM533.677 2.68H544.365V0.679996H533.677V2.68ZM543.365 1.68V2.32H545.365V1.68H543.365ZM544.365 1.32H533.677V3.32H544.365V1.32ZM533.677 1.32C531.753 1.32 530.097 1.4724 528.727 1.79458C527.365 2.11523 526.221 2.61907 525.39 3.3699L526.731 4.8541C527.222 4.41026 528.01 4.0181 529.186 3.74142C530.355 3.46626 531.846 3.32 533.677 3.32V1.32ZM525.404 3.35792C523.76 4.78931 523.076 7.13078 523.076 10.064H525.076C525.076 7.36522 525.715 5.73869 526.717 4.86608L525.404 3.35792ZM523.076 10.064V27.984H525.076V10.064H523.076ZM523.076 27.984C523.076 30.872 523.738 33.1843 525.328 34.6153L526.665 33.1287C525.695 32.2557 525.076 30.6427 525.076 27.984H523.076ZM525.328 34.6153C526.145 35.3508 527.29 35.8361 528.657 36.1436C530.034 36.4534 531.713 36.6 533.677 36.6V34.6C531.8 34.6 530.279 34.4586 529.096 34.1924C527.903 33.9239 527.128 33.5452 526.665 33.1287L525.328 34.6153ZM533.677 36.6H544.365V34.6H533.677V36.6ZM585.96 35.6H586.96V34.6H585.96V35.6ZM585.96 36.24V37.24H586.96V36.24H585.96ZM564.392 36.24H563.392V37.24H564.392V36.24ZM564.392 1.68V0.679996H563.392V1.68H564.392ZM585.96 1.68H586.96V0.679996H585.96V1.68ZM585.96 2.32V3.32H586.96V2.32H585.96ZM565.032 2.32V1.32H564.032V2.32H565.032ZM565.032 18.384H564.032V19.384H565.032V18.384ZM580.776 18.384H581.776V17.384H580.776V18.384ZM580.776 19.024V20.024H581.776V19.024H580.776ZM565.032 19.024V18.024H564.032V19.024H565.032ZM565.032 35.6H564.032V36.6H565.032V35.6ZM584.96 35.6V36.24H586.96V35.6H584.96ZM585.96 35.24H564.392V37.24H585.96V35.24ZM565.392 36.24V1.68H563.392V36.24H565.392ZM564.392 2.68H585.96V0.679996H564.392V2.68ZM584.96 1.68V2.32H586.96V1.68H584.96ZM585.96 1.32H565.032V3.32H585.96V1.32ZM564.032 2.32V18.384H566.032V2.32H564.032ZM565.032 19.384H580.776V17.384H565.032V19.384ZM579.776 18.384V19.024H581.776V18.384H579.776ZM580.776 18.024H565.032V20.024H580.776V18.024ZM564.032 19.024V35.6H566.032V19.024H564.032ZM565.032 36.6H585.96V34.6H565.032V36.6Z" fill="white"/>
</svg>
