<svg width="970" height="217" viewBox="0 0 970 217" fill="none" xmlns="http://www.w3.org/2000/svg">
<path d="M938.025 1.45195C938.608 0.729225 939.519 0.49844 940.393 0.261581C936.404 6.58996 931.631 12.396 926.415 17.7466C921.885 22.7206 917.41 27.7433 912.789 32.6262C911.174 34.2478 909.249 35.6811 908.471 37.9282C909.655 38.8331 910.979 39.6044 912.497 39.7805C917.95 40.6976 923.512 40.23 929.02 40.0781C936.379 39.9688 943.581 38.2318 950.916 37.7581C956.982 37.0354 963.121 37.1326 969.163 36.2094C968.932 37.0718 968.702 37.9282 968.471 38.7845C964.451 41.0802 959.952 42.3921 955.737 44.2687C944.559 49.4857 932.487 52.3098 920.913 56.4517C927.222 53.0628 933.738 49.9958 940.527 47.6637C948.706 44.8943 956.575 41.3231 964.803 38.6995C958.112 39.6348 951.529 41.2442 944.862 42.3192C932.117 44.2262 919.353 46.0664 906.48 46.8256C894.991 47.7912 883.46 48.3135 871.965 49.0545C868.121 50.4938 864.071 51.2166 860.106 52.2247C859.796 53.075 859.511 53.9313 859.244 54.7877C868.115 57.6239 877.454 58.3466 886.587 59.8285C882.507 60.1261 878.444 59.5613 874.388 59.2272C873.362 59.1118 872.372 59.4337 871.413 59.6584C866.251 58.8871 861.065 57.879 856.238 55.8566C849.48 53.8038 842.369 53.3726 835.55 51.5749C824.256 48.7872 812.536 46.9045 800.89 48.2406C798.971 48.52 796.906 48.7508 795.309 49.9412C794.216 50.8522 794.259 52.4494 794.702 53.6823C795.595 56.4214 797.52 58.6381 799.226 60.9095C802.347 61.6687 805.511 62.2274 808.65 62.9259C809.13 63.4785 809.701 63.9158 810.356 64.2377C824.365 69.3575 839.394 72.467 854.35 70.9548C861.885 70.56 869.287 67.5355 876.872 68.8716C864.454 73.1412 851.277 74.2404 838.483 76.943C833.734 78.0362 828.773 78.6254 824.401 80.915C823.175 81.4737 822.835 82.8341 822.501 84.0063C823.594 85.2999 824.65 86.879 826.442 87.2494C842.205 91.938 856.803 100.902 867.66 113.304C864.12 110.814 861.193 107.571 857.689 105.032C847.688 97.3433 836.139 91.5493 823.885 88.4884C811.164 85.2878 797.811 86.4842 785.163 89.4055C774.694 91.9077 764.73 96.1165 755.154 100.969C746.604 105.524 738.534 111.373 732.735 119.231C728.752 124.77 725.357 130.746 722.704 137.032C720.937 142.267 717.536 146.731 715.727 151.954C714.47 154.663 714.081 157.639 713.073 160.421C713.013 159.516 713.007 158.617 712.994 157.712L713.565 158.52C714.136 152.234 716.115 146.173 718.065 140.196C720.281 133.437 723.724 127.175 727.373 121.102C729.468 117.561 732.444 114.664 734.794 111.318C736.615 107.601 733.676 103.738 730.507 101.971C718.605 106.016 706.139 108.008 693.788 110.103C704.414 106.654 715.35 104.279 726.001 100.884C732.99 98.8555 739.906 96.5719 746.865 94.422C763.333 88.6341 779.959 82.6337 797.41 80.7085C801.218 80.2348 805.08 80.1983 808.85 79.427C801.096 79.3967 793.293 79.4878 785.63 80.8482C781.295 81.3826 777.117 82.7005 772.848 83.5569C772.138 81.6134 773.158 79.5667 775.168 78.9958C780.105 77.2649 785.515 77.848 790.573 76.5301C783.711 75.6555 776.662 75.279 769.867 76.8459C756.939 79.1537 744.825 84.3828 732.45 88.5734C728.053 90.2011 723.639 91.7801 719.273 93.4806C716.923 94.3734 714.427 94.8471 712.187 95.995C716.043 95.6549 719.789 94.0637 723.694 94.4038C724.034 96.244 722.327 97.8838 721.028 98.9952C714.737 101.88 707.693 102.269 701.208 104.546C697.207 105.913 693.029 106.556 688.954 107.607C680.702 110.103 672.238 111.786 663.797 113.456C659.443 114.069 655.278 115.612 650.9 116.049C645.192 116.444 639.624 117.901 633.898 118.096C625.026 119.584 616.088 120.64 607.156 121.721C605.613 121.892 604.083 122.189 602.662 122.809C603.986 122.924 605.328 122.985 606.67 122.967C604.97 123.276 603.245 123.349 601.533 123.294C595.023 134.986 589.619 147.357 581.689 158.204C577.305 164.641 572.501 170.776 567.789 176.976C570.188 174.486 572.38 171.784 575.088 169.603C571.129 176.399 565.846 182.266 560.539 188.036C558.25 190.611 555.396 192.591 552.615 194.595C554.904 191.892 557.035 189.056 559.586 186.584C559.501 186.384 559.343 185.977 559.264 185.77C564.632 179.831 569.313 173.29 573.898 166.725C578.355 160.111 582.897 153.533 586.601 146.452C586.832 146.403 587.293 146.312 587.524 146.27C591.483 139.292 594.926 132.034 599.043 125.141C602.109 120.112 604.314 114.646 607.022 109.435C609.615 104.455 610.775 98.9162 612.62 93.6507C611.23 103.496 606.67 112.435 602.529 121.345C606.828 120.75 611.127 119.821 615.481 119.845C615.049 119.602 614.63 119.353 614.218 119.116C611.582 119.426 608.941 119.748 606.287 119.766C611.874 118.144 617.782 118.077 623.332 116.292C619.33 116.426 615.353 116.911 611.351 116.808C616.167 115.405 621.249 115.272 626.162 114.306C627.449 114.118 628.7 113.765 629.975 113.438C628.208 113.304 626.441 113.17 624.722 112.745C629.319 112.205 633.831 111.142 638.306 109.982C634.292 110.091 630.303 110.583 626.295 110.571C633.412 108.524 640.978 108.397 648.101 106.228C643.328 106.344 638.555 107.231 633.794 106.872C641.445 105.53 649.108 104.024 656.413 101.303C651.774 102.087 647.093 102.627 642.387 102.67C648.368 101.23 654.488 100.028 660.142 97.5012C660.98 96.657 661.229 95.3998 661.751 94.3552C650.9 89.5634 639.259 86.9701 627.746 84.3342C624.722 83.6358 621.808 82.4697 618.717 82.1053C616.993 82.239 615.304 82.658 613.586 82.8099C614.861 81.662 616.646 81.6438 618.243 81.2915C625.342 79.8825 632.337 78.018 639.381 76.3539C650.797 74.0096 662.115 71.2463 673.403 68.3433C678.887 66.995 684.4 65.7621 689.829 64.1952C697.498 62.0999 704.864 59.0754 712.272 56.2149C716.996 54.4536 721.35 51.8907 725.971 49.8986C727.155 49.5464 727.331 48.1252 726.541 47.2871C724.659 45.1797 721.963 44.0561 719.449 42.9022C711.901 39.6226 704.323 36.4159 696.672 33.3914C685.961 28.551 674.509 25.733 663.232 22.5688C661.022 21.9736 658.775 21.5485 656.565 20.9776C654.549 20.2002 652.539 19.3196 650.39 19.0038C650.22 18.937 649.868 18.8094 649.698 18.7487C649.102 18.6394 647.918 18.4207 647.323 18.3114C647.341 18.6029 647.378 19.186 647.396 19.4836C646.206 19.1617 645.077 18.7912 643.941 18.3722C643.893 18.36 643.795 18.3296 643.747 18.3175C641.075 17.8195 638.579 16.7202 635.926 16.1858C636.333 17.0239 636.594 18.1778 637.608 18.524C643.006 20.8197 648.683 22.3441 654.155 24.4515C645.902 23.4616 638.027 19.9998 629.659 19.9573L629.483 19.9634C627.728 18.7609 625.67 18.1778 623.648 17.6251C624.625 16.5988 625.548 15.5177 626.423 14.3941C624.826 15.5056 621.784 16.119 621.68 18.3539C623.132 18.8702 624.644 19.2224 626.156 19.5747C611.764 17.4794 597.282 16.1554 582.818 14.6735C570.091 13.4832 557.315 12.9973 544.551 12.3232C533.858 11.5093 523.134 11.8312 512.423 11.5883C497.849 11.4607 483.246 11.1449 468.715 12.4203C456.989 13.4771 445.221 13.8718 433.472 14.4002C426.671 15.1169 419.852 15.6878 413.099 16.781C402.078 18.5847 391.142 20.9594 380.03 22.1437C367.339 25.399 354.66 28.8547 342.443 33.6526C333.365 37.254 324.111 40.3575 314.984 43.8314C306.89 46.7709 298.954 50.1537 290.768 52.8563C283.573 55.2492 276.687 58.4802 269.485 60.8792C263.541 63.6 257.881 66.9221 252.101 69.9891C253.928 70.475 255.847 70.7422 257.584 71.5439C258.525 72.0844 259.472 72.6432 260.504 73.0015C275.327 78.0119 290.234 82.7916 305.166 87.4559C306.137 87.7535 305.767 89.0289 305.676 89.7699C304.813 93.3045 303.405 96.7359 303.204 100.41C302.968 102.287 303.295 104.996 300.994 105.67C296.191 106.228 291.357 105.311 286.542 105.311C282.449 105.348 278.448 104.267 274.355 104.285C282.595 106.994 291.418 106.83 299.713 109.271C300.697 109.745 302.488 109.976 302.433 111.385C302.366 116.262 302.53 121.132 302.403 126.009C302.306 130.461 303.32 134.87 302.943 139.322C302.53 144.211 303.15 149.094 303.198 153.989C303.289 153.691 303.472 153.108 303.563 152.811C304.061 160.348 304.455 167.909 304.662 175.458C303.897 180.657 304.807 185.916 304.206 191.127C302.804 184.204 302.779 177.067 301.996 170.059C301.255 169.379 300.508 168.705 299.749 168.049C297.442 170.903 296.98 174.735 296.276 178.221C295.517 181.635 295.808 185.127 295.851 188.588C295.068 184.914 293.908 181.313 293.622 177.553C292.784 170.029 290.993 162.643 288.752 155.428C287.131 150.278 285.558 145.079 283.202 140.203C279.948 133.649 276.104 127.358 271.404 121.734C268.738 118.503 265.417 115.94 262.375 113.091C254.766 106.192 245.209 101.977 235.675 98.4547C220.325 93.2924 203.529 90.9238 187.595 94.7621C179.531 96.6084 172.184 100.769 165.735 105.852C158.218 111.439 151.86 118.399 146.001 125.669C140.876 132.01 136.649 139.103 133.638 146.689C130.96 153.922 128.258 161.289 127.614 169.045C125.847 184.295 127.632 199.703 130.905 214.619C127.414 205.241 124.96 195.391 124.626 185.357C124.317 175.683 124.948 165.911 127.237 156.485C125.519 156.121 124.213 157.627 123.442 158.963C121.329 164.198 120.783 169.858 119.374 175.3C117.2 187.702 118.5 200.571 122.003 212.608C118.979 212.596 115.937 213.361 112.95 213.046C108.82 207.561 105.025 201.731 100.143 196.842C92.5043 196.66 85.0537 198.397 77.6577 200.061C69.8064 201.197 61.8092 202.338 54.4254 205.375C54.6926 204.944 55.233 204.075 55.5002 203.644C63.1998 201.239 71.288 200.164 79.024 197.82C72.8728 197.377 66.837 199.612 60.6798 198.652C58.0566 198.239 54.5469 198.087 53.3506 195.251C48.8997 185.953 44.3273 176.484 37.1985 168.899C35.5226 167.028 32.7172 165.899 30.3066 166.998C28.5456 167.326 26.73 166.767 24.9509 166.883C25.3334 167.21 26.0985 167.86 26.4811 168.182C19.1944 168.923 12.1506 171.055 4.94895 172.257C5.69584 171.778 7.20175 170.812 7.95471 170.332C10.42 169.524 12.9521 168.929 15.4235 168.134C17.8585 167.32 20.4817 167.192 22.8195 166.081C18.8847 166.057 15.1746 167.472 11.4219 168.456C8.51335 169.215 5.70799 170.29 2.90262 171.346C2.2286 170.016 1.59102 168.668 0.989868 167.308C12.4846 161.866 24.8355 158.568 37.071 155.258C49.3369 152.185 61.6514 149.288 73.7837 145.717C79.2912 144.144 84.8655 142.65 90.0451 140.154C93.9556 138.028 98.1454 136.492 102.117 134.5C98.0786 134.925 94.4778 137.069 90.4398 137.512C80.8032 138.824 71.373 141.508 61.6817 142.365C63.9527 140.84 66.5456 139.832 68.683 138.095C65.0275 138.356 62.0278 140.804 58.4513 141.423C61.0077 139.036 64.4446 137.925 67.0071 135.563C62.3861 136.887 58.2752 139.48 53.8182 141.229C58.1538 137.555 63.4002 135.198 68.0454 131.967C63.7827 133.018 60.1758 135.708 56.0163 137.044C60.8195 133.309 66.3877 130.68 71.3062 127.102C71.2758 126.847 71.209 126.331 71.1787 126.076L71.0876 125.177C68.3672 126.234 65.993 127.971 63.4852 129.435C57.3887 133.321 50.9643 136.637 44.6674 140.172C44.382 139.978 43.8112 139.595 43.5197 139.401C47.3391 136.996 51.4743 135.125 55.2209 132.611C56.5871 131.663 57.9655 130.734 59.4046 129.89C60.2305 130.376 60.5402 130.169 60.3398 129.271C67.4503 126.034 74.0326 121.758 81.0946 118.418C82.0297 117.999 83.0377 117.78 84.0275 117.519C80.5299 120.039 76.6376 121.916 72.806 123.871C72.9639 124.169 73.2797 124.77 73.4315 125.068C81.3132 122.134 88.6849 118.023 96.1173 114.142C97.356 113.316 99.5481 112.678 98.9712 110.765C100.216 110.31 101.418 109.745 102.627 109.186C101.928 108.986 101.236 108.785 100.544 108.591C103.981 107.133 107.794 106.666 111.061 104.844C112.537 103.896 114.37 104.121 115.961 103.508C127.067 98.3393 138.671 93.4199 151.059 92.7275C154.514 92.5818 158.333 92.4785 161.303 94.5374C163.586 96.1468 166.525 96.9181 169.275 96.2804C169.864 95.995 170.988 95.9889 171.03 95.1326C168.729 94.4159 166.063 95.1265 163.956 93.7357C162.268 92.6304 161.157 90.0189 162.645 88.3123C165.037 85.7007 168.583 84.6561 171.838 83.5326C176.544 82.0689 181.244 80.3562 186.18 79.8764C185.938 80.168 185.452 80.7571 185.209 81.0486C187.395 82.4212 189.393 84.0792 191.257 85.8587C192.927 85.5307 194.603 85.2027 196.279 84.8991C193.51 83.2532 191.202 80.9696 188.549 79.1659C189.496 78.9351 190.431 78.6496 191.378 78.3703C193.765 80.2894 195.92 82.4697 198.216 84.48C200.869 84.7776 203.553 84.0792 206.225 84.0913C204.33 82.3786 202.648 80.4534 200.972 78.5343C200.371 77.769 199.473 77.3864 198.544 77.2528C204.464 76.3054 210.445 75.6737 216.341 74.5502C212.419 73.9125 208.459 74.9024 204.531 75.0482C196.728 76.0381 188.81 76.0564 181.08 77.6233C175.694 78.6436 170.223 79.5789 165.14 81.7106C160.185 84.3221 155.522 87.7292 149.996 89.0411C141.726 91.3975 133.51 94.0029 125.604 97.3918C121.214 99.0316 116.915 100.89 112.506 102.481C107.679 103.793 102.742 104.692 97.9693 106.216C96.4452 106.733 94.8604 107.048 93.2573 107.194C96.4452 105.239 99.9853 104 103.398 102.512C112.306 98.2907 121.754 95.3998 130.923 91.8408C139.716 88.4641 148.909 86.3627 157.89 83.6115C155.437 83.7451 153.002 84.1824 150.628 84.814C142.248 86.9822 133.801 89.0107 125.689 92.0656C122.1 93.3349 118.5 94.5738 114.88 95.7581C112.148 96.6266 109.579 97.981 106.774 98.6247C114.279 94.8471 122.319 92.2842 130.085 89.0957C137.299 86.0044 144.883 83.8909 152.419 81.7531C159.317 80.2348 166.039 77.9937 173.016 76.8337C181.371 74.7992 189.836 73.2323 198.295 71.6593C202.235 70.9183 206.261 70.6086 210.166 69.6308C207.682 69.3636 205.18 69.3636 202.691 69.4547C208.538 68.6105 214.441 68.3372 220.319 67.7724C228.358 66.4302 236.677 65.6467 244.031 61.8145L244.79 62.2335C249.854 61.28 254.372 58.4195 259.411 57.3627C254.554 59.6159 249.496 61.4501 244.407 63.1142C242.938 63.7397 240.715 63.5271 240.102 65.3309C243.903 65.7074 247.51 64.2377 251.074 63.1384C262.527 59.1361 273.839 54.7512 285.237 50.591C304.583 43.6553 323.388 35.341 342.394 27.5489C347.896 25.2471 353.616 23.5527 359.354 21.9615C370.351 18.2446 381.749 15.9125 393.031 13.2463C398.514 11.6976 404.143 10.7441 409.796 10.0821C418.054 8.582 426.331 7.06975 434.723 6.59603C448.847 5.35708 463.043 5.87331 477.192 5.24776C489.761 4.6708 502.331 5.3753 514.9 5.29027C527.033 5.351 539.177 5.35101 551.273 6.29237C557.151 6.68106 563.029 7.06368 568.919 7.22766C575.185 7.53132 581.446 8.17509 587.724 8.1265C597.871 8.45446 607.896 10.2096 618.013 10.9567C632.908 12.7058 647.773 14.7525 662.601 16.9996C666.803 17.8013 670.938 18.9127 675.164 19.6172C677.514 19.9937 679.822 20.6011 682.075 21.3906C675.013 21.6214 668.084 20.0848 661.113 19.2467C670.823 22.6113 680.557 25.9273 690.108 29.7292C696.836 32.3286 703.74 34.436 710.462 37.0597C714.008 38.3837 717.464 40.0903 721.247 40.6733C726.711 41.5782 732.377 43.0844 737.891 41.7058C739.913 41.0013 742.402 40.0538 743.119 37.8249C743.234 35.7722 741.37 34.43 739.906 33.3368C738.322 32.3104 736.852 30.9925 735.036 30.4155C727.653 28.9822 720.263 27.5611 712.818 26.4922C710.833 26.2492 708.774 25.5994 706.831 26.3585C706.825 26.0124 706.813 25.32 706.813 24.9738C706.758 25.3139 706.655 26.0002 706.6 26.3403C702.829 25.1257 698.834 24.9313 695.039 23.8442C694.006 23.0486 692.792 22.5567 691.529 22.3016C684.358 20.7286 677.156 19.2771 670.033 17.4855C674.97 16.6595 679.943 18.0138 684.91 17.6616C691.572 17.2547 698.233 16.7627 704.894 16.3497C719.486 15.9489 734.089 16.2586 748.663 15.2869C755.749 15.3112 762.823 14.6978 769.921 14.8254C773.953 14.6189 778.046 14.8739 782.042 14.1148C784.288 13.7443 786.584 13.8779 788.855 13.6896C796.712 13.3192 804.557 12.4507 812.439 12.5236C825.828 12.6329 839.139 10.8716 852.504 10.2704C863.009 9.87562 873.52 9.67519 884.031 9.89383C890.115 9.86954 896.236 10.6894 902.29 9.76022C907.56 9.12252 912.874 8.94032 918.181 9.25613C911.119 10.8656 904.087 12.7969 896.849 13.4042C892.684 14.1694 888.439 14.1208 884.243 14.5095C880.94 18.9066 877.582 23.2733 874.71 27.968C872.384 31.8245 869.251 35.3288 868.073 39.7684C867.423 41.6329 869.251 42.8415 870.763 43.3759C875.608 45.5745 880.776 42.9022 885.524 41.6572C883.618 43.218 881.341 44.2505 879.537 45.9328C893.145 39.7745 905.933 31.6727 917.148 21.7732C921.059 18.6576 924.781 15.3234 928.145 11.6186C929.226 11.7097 930.331 10.8959 929.997 9.70556C933.07 7.36127 935.268 4.1242 938.025 1.45195ZM830.632 19.1617C818.882 20.7407 807.181 23.1458 796.044 27.2574C791.065 29.3223 785.776 31.1261 781.72 34.8126C783.529 35.2073 785.333 35.6507 787.13 36.1487C781.702 35.7479 776.401 34.4057 771.039 33.5736C757.904 31.4115 744.855 28.6846 731.612 27.2635C731.642 28.3506 732.917 28.2595 733.713 28.5024C738.941 29.2555 744.139 30.209 749.312 31.284C764.292 34.4239 779.394 36.9443 794.374 40.0781C806.719 43.0844 819.034 46.2486 831.391 49.2245C837.53 51.0769 843.899 51.9818 850.099 53.6216C851.89 54.0285 853.67 54.6844 855.54 54.6844C856.839 54.6358 858.066 53.1236 857.307 51.8785C856.487 50.3663 854.471 50.919 853.093 50.5424C847.221 49.3946 841.319 48.35 835.52 46.8924C829.478 45.368 823.296 44.4873 817.291 42.8293C813.38 41.7058 809.282 41.2563 805.499 39.732C819.283 41.7604 833.091 44.0744 847.057 44.3537C852.528 40.1996 858.175 36.2823 863.555 32.0006C868.638 28.0226 873.319 23.5527 877.977 19.0827C879.458 17.6434 881.134 16.3558 882.306 14.6189C865.055 15.8274 847.767 16.7749 830.632 19.1617ZM213.676 81.7835C214.86 82.2207 216.117 82.5791 217.046 83.484C208.69 83.9516 200.462 85.6461 192.423 87.9479C185.646 89.9581 178.736 91.6161 172.214 94.3795C172.117 94.5192 171.923 94.7925 171.826 94.9322C173.477 95.0779 175.074 94.343 176.665 93.9301C189.702 90.116 202.934 85.725 216.706 86.2716C219.566 86.2716 222.371 86.9033 225.219 87.0429C226.779 86.9883 227.49 84.6197 225.929 83.9699C222.037 82.4515 217.853 81.7349 213.676 81.7835ZM177.546 82.822C179.58 84.6804 181.991 86.0469 184.146 87.7474C184.857 87.5045 185.573 87.2555 186.29 87.0004C183.703 85.063 180.801 83.2593 177.546 82.822ZM168.48 86.302C170.854 87.8871 173.186 89.5391 175.457 91.2639C176.617 90.778 177.777 90.2982 178.942 89.8184C176.708 88.3366 174.777 86.3749 172.384 85.1602C171.061 85.4517 169.779 85.9133 168.48 86.302ZM237.284 92.0777C243.915 94.2155 250.412 97.3372 255.616 102.044C248.53 98.6247 241.304 95.1083 233.453 93.924C241.359 97.1125 249.544 99.9851 256.479 105.087C264.36 110.82 272.175 117.069 277.501 125.359C279.316 127.37 280.361 130.194 282.917 131.414C286.348 133.303 289.548 136.783 293.823 136.061C297.29 134.652 298.693 130.655 299.276 127.23C299.591 124.71 300.545 121.91 299.081 119.565C296.853 114.458 291.722 111.318 286.536 109.866C280.373 108.221 274.033 107.255 267.664 106.927C265.441 106.86 264.506 104.613 262.891 103.496C255.477 97.6226 246.429 94.1426 237.284 92.0777ZM267.038 100.058C270.457 100.878 273.985 101.097 277.44 101.74C283.919 102.566 290.392 103.69 296.95 103.732C297.806 103.787 298.65 103.562 299.464 103.289C292.378 101.892 285.182 101.339 277.999 100.732C274.349 100.471 270.706 99.6936 267.038 100.058ZM160.246 102.342C151.186 108.949 143.074 116.984 137.062 126.501C135.022 129.708 132.86 132.921 131.658 136.559L132.441 136.395C129.399 142.438 126.934 148.784 124.863 155.216C125.088 155.088 125.543 154.827 125.768 154.699C127.565 151.274 128.525 147.466 130.334 144.041C132.897 139.03 135.514 134.002 138.787 129.41C139.273 128.596 140.147 127.898 140.159 126.884C140.481 127.187 140.803 127.503 141.125 127.813C140.032 129.295 139.181 130.929 138.441 132.611C142.345 125.857 147.47 119.936 152.619 114.118C156.196 110.091 160.125 106.399 164.284 102.991L163.106 102.888C163.987 102.421 164.193 101.412 164.412 100.532C162.936 100.908 161.479 101.425 160.246 102.342ZM141.659 108.646C135.022 110.911 128.816 114.215 122.586 117.391C120.048 118.995 117.158 120.179 115.093 122.426C117.085 121.594 118.852 120.337 120.74 119.292C129.569 114.379 138.963 110.468 148.672 107.662C149.96 107.285 151.223 106.805 152.407 106.168C148.618 105.767 145.175 107.565 141.659 108.646ZM619.136 119.08C618.389 118.418 616.816 118.618 615.802 118.654C615.705 119.972 618.268 119.383 619.136 119.08Z" fill="#9698A0"/>
<path d="M911.368 17.036C915.187 15.9489 918.812 14.2423 922.674 13.3131C921.095 15.5116 919.11 17.3518 917.13 19.1738C911.35 20.3278 905.557 21.5424 899.855 23.0486C896.436 23.8017 892.993 24.5183 889.49 24.6459C886.405 24.6884 883.393 25.6419 880.302 25.32C884.237 24.1357 887.844 21.8643 891.997 21.4817C898.58 20.6193 904.98 18.8094 911.368 17.036Z" fill="#9698A0"/>
<path d="M664.344 48.9877C668.224 48.4836 671.904 47.0806 675.796 46.6373C672.687 48.0524 669.444 49.267 666.663 51.2834C665.619 52.0061 665.479 53.6945 666.433 54.5508C668.594 56.6157 671.624 57.3931 674.521 57.7332C681 58.4802 687.546 58.4013 694.049 58.0004C690.12 59.9075 685.767 60.6484 681.619 61.9177C673.112 64.0798 664.672 66.4848 656.17 68.653C645.247 71.1491 634.365 73.8214 623.563 76.7973C614.764 79.2388 605.795 80.9697 596.821 82.6155C594.027 83.0407 591.198 83.1196 588.386 83.3018C561.996 85.1238 535.661 87.5713 509.35 90.2314C501.268 91.1728 493.295 92.9219 485.177 93.5292C471.812 94.5496 458.447 95.6185 445.058 96.1893C449.423 95.5516 453.771 94.6771 458.022 93.4746C452.964 93.7782 447.893 93.7965 442.835 93.5535C444.298 93.0009 445.889 93.013 447.426 92.849C452.126 92.3996 456.771 91.5251 461.428 90.772C462.861 90.4197 464.683 91.0756 465.752 89.7638C457.821 90.6383 449.873 89.1625 441.991 88.3184C437.959 87.7961 433.842 87.8629 429.871 86.9397C439.186 87.1584 448.567 87.8082 457.852 86.8182C449.921 86.6057 442.058 85.1602 434.109 85.1663C430.071 85.1299 426.027 85.0145 421.995 84.8141C418.334 84.644 414.709 85.3849 411.053 85.2635C404.015 85.0388 396.978 85.0631 389.94 84.9416C390.329 85.2574 391.106 85.8951 391.494 86.2109L391.701 86.4053C389.078 85.7736 386.369 85.9073 383.698 85.719C380.036 85.555 376.393 85.0266 372.719 85.2149C377.619 88.288 382.538 91.8895 385.204 97.1793C385.999 98.6551 385.368 100.471 384.177 101.534C381.39 103.945 377.698 105.36 373.988 105.093C369.106 104.868 364.23 104.109 359.536 102.742C356.458 101.649 352.905 100.914 349.815 102.348C348.788 102.779 348.139 103.72 347.951 104.795C351.867 105.548 355.85 106.229 359.633 107.486C357.338 107.231 355.049 106.891 352.735 106.927C345.989 106.909 339.334 105.591 332.6 105.348C331.021 105.299 329.448 105.044 327.936 104.619C328.416 105.026 328.902 105.457 329.315 105.955L329.333 105.324C338.186 106.563 347.076 107.559 355.911 108.931C355.079 109.18 354.205 109.21 353.361 109.198C344.447 109.047 335.557 108.239 326.643 108.099C323.68 107.905 320.704 108.038 317.784 108.591C317.116 109.757 316.515 110.966 315.95 112.186C317.729 114.652 319.709 116.966 321.597 119.347C316.976 115.496 311.863 111.919 308.099 107.297C309.046 104.917 308.584 102.342 308.973 99.8698C309.337 97.3433 310.121 94.8957 310.382 92.351C311.171 90.1768 312.161 88.0268 313.406 86.0652C320.2 85.142 327.105 85.47 333.948 85.0934C335.952 85.0691 337.992 84.7412 339.984 85.0995C341.569 86.0287 343.014 87.3163 343.955 88.9075C343.828 90.4501 342.431 91.5554 341.824 92.9584C351.515 97.8048 361.844 102.068 372.768 102.827C376.126 103.18 379.514 102.129 382.186 100.101C382.927 99.5479 383.406 98.4911 382.811 97.6591C380.704 93.8511 377.334 90.9177 373.733 88.5552C371.669 87.0915 369.319 85.9558 367.649 84.0063C367.849 83.7269 368.262 83.1621 368.463 82.8827C378.633 82.4941 388.713 80.83 398.903 80.666C400.33 80.7207 401.866 80.4048 403.244 80.83C404.131 81.3705 405.048 81.9718 406.153 81.8746C409.79 82.0021 413.439 81.8381 417.089 81.8746C423.799 82.0021 430.448 80.836 437.151 80.6235C444.05 80.417 450.911 79.4878 457.821 79.5424C471.824 78.5221 485.741 76.6394 499.732 75.4733C510.674 74.3558 521.476 72.1695 532.425 71.0945C533.785 70.9062 535.279 70.7726 536.293 69.7037C539.56 68.8534 543.015 69.0781 546.342 68.483C551.4 67.5963 556.428 66.4909 561.559 66.0719C568.069 64.7236 574.621 63.5332 581.16 62.3429C580.559 62.6951 579.964 63.0656 579.387 63.4421C588.307 62.9745 597.112 61.3772 605.978 60.3387C620.411 58.626 634.79 56.4032 649.078 53.6945C654.258 52.4616 659.286 50.6517 664.344 48.9877ZM581.573 67.0982C585.666 69.4365 590.032 71.2281 594.276 73.2748C596.371 74.2526 598.381 75.4308 600.598 76.1353C597.045 73.4023 592.91 71.5925 588.909 69.6308C586.54 68.5983 584.239 67.1347 581.573 67.0982Z" fill="#9698A0"/>
<path d="M351.691 56.9923C356.263 56.0023 360.854 54.7512 365.566 54.7998C363.835 55.5711 361.923 55.7776 360.107 56.2635C353.604 57.7514 347.453 60.3872 341.144 62.4947C343.275 62.8348 345.443 63.0838 347.513 63.7336C340.603 63.9462 333.711 64.4563 326.868 65.4099C334.616 61.28 343.251 59.2272 351.691 56.9923Z" fill="#9698A0"/>
<path d="M320.188 66.1447C324.955 62.8712 330.463 60.7091 336.043 59.3122C330.845 62.0938 324.597 63.1992 320.437 67.7116C322.575 68.1914 324.712 67.5962 326.795 67.1225C326.637 69.2421 328.963 70.1895 330.511 71.058C334.373 72.7586 338.29 74.3801 342.285 75.7405C346.718 76.5908 351.26 76.4815 355.753 76.7487C360.459 76.5847 365.135 75.8802 369.829 75.4794C372.907 75.4794 374.723 72.6492 376.709 70.7179C375.81 73.3173 374.632 76.609 371.529 77.1374C365.135 78.2549 358.613 78.346 352.165 78.9776C349.341 78.9958 346.457 79.506 343.676 78.9472C339.929 77.2224 336.025 75.8924 332.272 74.1858C328.125 72.3638 324.275 69.9284 320.146 68.07C319.186 67.8088 319.381 66.4484 320.188 66.1447Z" fill="#9698A0"/>
<path d="M581.616 98.7766C586.231 98.3697 590.827 97.7441 595.375 96.8392C595.436 97.6591 595.588 98.9466 594.422 98.9831C581.409 101.667 568.172 103.028 554.916 103.653C553.999 103.277 553.993 102.293 553.829 101.479L553.981 101.522C557.26 102.542 560.679 101.352 564.018 101.224C569.945 100.884 575.695 99.2381 581.616 98.7766Z" fill="#9698A0"/>
<path d="M547.016 100.374C548.31 99.4021 550.441 98.9405 551.631 100.343C550.781 101.983 550.987 103.781 551.425 105.506C549.785 104.759 549.67 102.84 549.312 101.333C547.727 102.457 546.761 104.17 545.82 105.809C545.693 103.963 545.559 101.777 547.016 100.374Z" fill="#9698A0"/>
<path d="M542.638 103.161C542.231 101.321 543.768 99.7179 545.613 99.888C544.168 101.449 544.138 103.55 544.308 105.542C543.063 106.022 542.814 104.018 542.638 103.161Z" fill="#9698A0"/>
<path d="M146.729 134.907C150.379 125.608 157.095 117.877 164.606 111.458C161.29 116.073 157.829 120.622 154.684 125.378C149.006 134.724 145.691 145.474 145.047 156.388C144.258 165.322 144.598 174.62 148.017 183.025C149.796 187.562 151.374 192.257 154.04 196.368C153.828 196.338 153.409 196.271 153.202 196.241C151.411 194.085 149.99 191.662 148.624 189.226C146.104 184.647 143.833 179.837 142.916 174.656C141.434 167.132 141.805 159.418 142.521 151.833C143.195 146.039 144.786 140.391 146.729 134.907Z" fill="#9698A0"/>
<path d="M734.994 136.668C737.162 130.771 740.216 125.05 744.503 120.422C737.417 131.566 733.974 144.581 732.462 157.59C732.401 158.252 732.256 158.902 732.092 159.546C731.83 151.839 732.286 143.962 734.994 136.668Z" fill="#9698A0"/>
<path d="M216.025 123.465C216.22 122.426 216.584 121.424 217.367 120.689C217.24 125.602 215.679 130.358 214.872 135.192C216.748 135.411 218.6 135.818 220.458 136.2C218.351 137.67 215.528 138.356 213.08 137.494C212.965 137.342 212.728 137.038 212.613 136.887C213.524 132.362 215.048 127.977 216.025 123.465Z" fill="#9698A0"/>
<path d="M202.345 122.778C202.63 121.387 203.802 122.79 204.142 123.294C204.956 124.205 205.326 125.663 206.231 126.349C206.395 126.076 206.717 125.535 206.875 125.268C206.595 126.392 207.451 128.299 205.897 128.651C204.057 127.212 203.104 124.922 202.345 122.778Z" fill="#9698A0"/>
<path d="M627.825 124.242C633.466 123.537 639.132 123.015 644.809 122.742C646.042 122.748 647.433 122.505 648.44 123.422C647.511 131.597 644.354 139.285 642.393 147.235C639.739 157.566 635.725 167.466 631.645 177.298C628.475 184.301 625.402 191.376 621.425 197.972C620.387 199.599 619.555 201.403 618.128 202.745C619.452 198.822 621.613 195.263 623.301 191.498C626.447 184.835 629.022 177.924 631.62 171.037C633.023 167.49 633.46 163.676 634.304 159.977C631.772 167.138 629.015 174.225 625.852 181.13C624.334 184.179 623.405 187.562 621.31 190.289C625.682 179.321 629.319 168.043 632.288 156.619C633.333 152.094 634.578 147.582 634.93 142.936C632.689 152.562 630.042 162.145 626.228 171.286C626.089 171.328 625.803 171.413 625.664 171.456C627.643 165.99 628.87 160.287 630.121 154.621C631.651 146.968 633.278 139.279 633.406 131.451C633.43 130.352 633.169 129.283 632.89 128.238C632.738 130.892 632.853 133.577 632.264 136.194C631.469 139.954 631.359 143.95 629.714 147.472C630.145 142.128 631.025 136.783 630.764 131.402C630.558 130.115 630.509 128.688 629.841 127.558C626.089 127.534 622.318 127.831 618.589 127.358C621.419 125.912 624.789 126.61 627.856 126.283C621.091 125.523 614.278 126.41 607.52 125.797C614.193 124.503 621.037 124.242 627.825 124.242Z" fill="#9698A0"/>
<path d="M228.127 124.576C228.303 124.448 228.644 124.187 228.814 124.06C229.299 125.432 229.378 126.89 229.384 128.335C230.732 127.807 232.062 127.23 233.368 126.604C231.941 127.801 230.635 129.277 228.856 129.969C228.704 129.89 228.401 129.732 228.249 129.653C228.164 127.965 228.079 126.264 228.127 124.576Z" fill="#9698A0"/>
<path d="M659.875 128.038C660.573 126.72 661.18 125.347 661.751 123.969C658.605 139.34 654.397 154.469 650.56 169.676C649.175 175.543 647.299 181.307 646.23 187.246C646.844 182.145 648.483 177.231 649.485 172.197C652.825 157.584 655.77 142.887 659.091 128.275L659.207 128.238C659.37 128.19 659.711 128.086 659.875 128.038Z" fill="#9698A0"/>
<path d="M140.712 126.683C141.094 125.888 141.616 125.183 142.278 124.588L142.509 124.618C142.515 125.39 142.242 126.064 141.689 126.629C141.446 126.641 140.955 126.671 140.712 126.683Z" fill="#9698A0"/>
<path d="M191.154 127.078C194.287 130.807 195.611 135.69 198.295 139.735C200.226 139.121 202.205 138.672 204.185 138.229C202.278 139.516 200.329 140.749 198.465 142.091C197.566 142.765 196.534 141.891 196.279 141.022C194.931 137.676 193.989 134.172 192.49 130.892C191.943 129.653 191.178 128.469 191.154 127.078Z" fill="#9698A0"/>
<path d="M446.327 131.852C449.484 131.554 452.563 130.364 455.751 130.491C448.664 131.912 441.73 134.002 434.631 135.392C423.653 137.816 412.48 139.2 401.368 140.846C392.272 142.152 383.127 143.1 373.964 143.761C361.674 144.994 349.341 145.747 336.99 145.905C336.614 145.535 336.237 145.164 335.861 144.806C349.845 144.156 363.75 142.444 377.668 140.992C393.091 139.65 408.369 137.069 423.695 134.961C431.261 134.069 438.767 132.775 446.327 131.852Z" fill="#9698A0"/>
<path d="M738.139 139.887C739.081 136.413 740.793 133.188 742.827 130.236C742.269 132.732 741.248 135.083 740.459 137.506C738.656 143.683 737.623 150.041 736.785 156.412C736.615 150.898 736.451 145.213 738.139 139.887Z" fill="#9698A0"/>
<path d="M524.482 135.976C533.997 134.469 543.549 133.127 553.101 131.876C550.866 133.048 548.322 133.388 545.899 133.99C535.424 136.036 524.968 138.21 514.518 140.36C502.161 142.905 489.664 144.66 477.149 146.227C464.653 148.019 451.968 148.675 439.362 148.128C445.562 147.527 451.628 146.009 457.852 145.626C470.804 143.768 483.774 141.988 496.762 140.342C506.047 139.182 515.258 137.542 524.482 135.976Z" fill="#9698A0"/>
<path d="M743.544 141.144C744.679 138.15 745.39 134.882 747.266 132.24C745.268 138.526 743.647 144.964 742.955 151.535C742.772 153.218 742.548 154.9 742.238 156.57C742.062 151.402 741.807 146.106 743.544 141.144Z" fill="#9698A0"/>
<path d="M181.766 136.929C182.094 135.344 183.806 134.22 185.039 133.188C184.571 134.324 183.994 135.405 183.418 136.486C184.863 137.354 186.29 138.253 187.717 139.158C185.713 138.66 182.986 138.83 181.766 136.929Z" fill="#9698A0"/>
<path d="M384.955 143.998C402.558 142.468 419.882 138.787 437.358 136.407C432.537 137.943 427.509 138.709 422.59 139.905C408.618 143.257 394.421 145.766 380.097 147.035C372.397 147.721 364.655 147.806 356.956 148.535C350.896 149.063 344.799 148.985 338.727 149.325C334.816 149.434 330.809 149.398 327.068 148.116C328.544 147.721 330.019 147.235 331.549 147.065C339.589 146.488 347.659 146.543 355.711 146.057C365.451 145.274 375.239 145.134 384.955 143.998Z" fill="#9698A0"/>
<path d="M54.2979 137.536C56.4656 137.488 52.8952 140.166 52.3669 138.909C52.7313 138.174 53.5814 137.822 54.2979 137.536Z" fill="#9698A0"/>
<path d="M175.609 146.264C176.24 145.134 176.228 143.142 177.855 142.978C181.141 143.014 184.505 143.774 187.17 145.784C184.092 145.316 181.043 144.466 177.898 144.812C177.588 146.027 177.236 147.229 176.878 148.432C180.497 150.357 183.837 152.738 187.103 155.197C182.908 154.104 179.094 151.973 175.421 149.738C174.03 148.912 175.269 147.339 175.609 146.264Z" fill="#9698A0"/>
<path d="M324.153 146.179C327.639 145.189 331.307 145.255 334.901 144.97C335.381 145.316 335.861 145.669 336.353 146.027C332.278 145.839 328.216 146.252 324.153 146.179Z" fill="#9698A0"/>
<path d="M258.792 148.93C260.832 155.167 261.743 161.884 260.693 168.407C259.515 175.166 257.122 181.762 253.206 187.428C255.55 181.525 257.778 175.476 258.537 169.13C259.43 162.431 259.169 155.653 258.792 148.93Z" fill="#9698A0"/>
<path d="M172.986 156.315C173.259 155.167 172.985 152.811 174.838 153.096C176.598 153.77 177.953 155.246 178.985 156.783C177.528 156.127 176.186 155.264 174.789 154.499C174.589 155.859 174.388 157.22 174.157 158.58C174.971 158.58 175.791 158.586 176.611 158.599C175.615 159.169 174.655 159.868 173.52 160.123C171.686 159.686 172.973 157.56 172.986 156.315Z" fill="#9698A0"/>
<path d="M863.239 153.09C864.757 159.321 864.193 165.965 861.879 171.929C861.521 172.64 861.072 173.296 860.653 173.958C861.187 171.195 862.031 168.504 862.395 165.71C863.173 161.544 862.978 157.299 863.239 153.09Z" fill="#9698A0"/>
<path d="M856.396 156.194C856.943 160.554 857.519 165.061 856.335 169.379C855.242 173.338 854.046 177.48 851.229 180.596C854.228 172.81 856.281 164.581 856.396 156.194Z" fill="#9698A0"/>
<path d="M858.879 161.769C859.037 159.904 859.171 158.028 859.535 156.187C859.815 159.248 859.985 162.328 859.839 165.401C859.274 170.168 857.465 174.723 855.096 178.877C857.374 173.46 858.515 167.623 858.879 161.769Z" fill="#9698A0"/>
<path d="M267.992 160.014C269.176 161.799 268.842 164.095 269.145 166.129C269.831 173.387 268.143 180.675 265.18 187.277C263.911 190.398 261.391 192.724 259.223 195.215C261.361 191.151 263.51 187.07 264.998 182.716C267.184 176.15 268.301 169.245 268.38 162.328C268.326 161.538 268.137 160.779 267.992 160.014Z" fill="#9698A0"/>
<path d="M122.197 169.616C122.622 167.794 122.471 165.783 123.497 164.156C121.602 175.592 121.287 187.38 123.527 198.792C124.177 202.909 125.361 206.918 126.132 211.011C123.703 203.092 120.91 195.099 120.862 186.718C120.953 181.003 121.092 175.245 122.197 169.616Z" fill="#9698A0"/>
<path d="M177.127 165.893C179.768 165.048 182.464 164.362 185.251 164.253C184.668 164.769 184.067 165.291 183.308 165.522C180.26 166.688 177.236 167.921 174.17 169.032C174.285 169.877 174.394 170.727 174.504 171.577C175.918 171.747 177.345 171.729 178.766 171.686C177.005 172.227 174.935 173.606 173.156 172.664C172.809 171.091 172.111 169.506 172.172 167.891C173.411 166.494 175.463 166.463 177.127 165.893Z" fill="#9698A0"/>
<path d="M373.357 188.103C415.71 183.044 458.052 177.906 500.436 173.168C500.023 173.436 499.586 173.612 499.118 173.691C446.084 180.39 393.025 186.943 339.941 193.235C337.956 193.563 335.958 193.933 333.942 193.69C338.411 193.635 342.777 192.451 347.198 191.826C355.82 189.961 364.625 189.238 373.357 188.103Z" fill="#9698A0"/>
<path d="M13.5654 173.168C17.2573 173.29 20.7913 174.687 23.9549 176.497L23.8699 177.335C25.722 177.833 27.5679 178.379 29.4807 178.64C30.7315 183.365 32.4135 187.933 34.5145 192.342C31.1262 191.072 28.1205 188.904 25.5519 186.39C27.2279 186.906 28.8795 187.483 30.5494 188.018C25.6187 183.195 18.8968 180.547 14.4033 175.252C14.3548 175.057 14.2637 174.662 14.2151 174.468C14.4884 174.407 15.0409 174.286 15.3142 174.225C14.877 173.958 14.0026 173.43 13.5654 173.168Z" fill="#9698A0"/>
<path d="M12.5817 183.542L12.6242 183.517C12.4238 185.661 13.4865 187.611 14.0876 189.603C16.2918 196.478 18.3807 203.401 20.9614 210.155C19.5587 210.13 18.156 210.1 16.7533 210.161C18.4293 210.884 20.5242 210.525 21.9147 211.861C19.8684 212.268 17.7613 211.849 15.715 211.849C17.6217 213.44 21.2407 211.886 22.5523 214.206C19.9048 214.321 17.2512 214.096 14.6098 214.303L14.1605 213.434C14.2212 213.714 14.3366 214.26 14.3973 214.54C10.5293 214.424 6.66129 214.436 2.78721 214.37C1.85209 213.617 0.868394 212.924 0.0425715 212.056C-0.133523 211.236 0.285456 210.446 0.412973 209.651C2.52003 209.62 4.75461 210.076 6.77059 209.317C8.81086 208.126 8.1915 205.412 8.50725 203.45C10.1042 203.073 12.0716 203.152 13.2071 201.768C14.1726 199.8 13.0553 197.601 11.9563 195.943C9.60632 192.615 6.98919 189.481 4.7789 186.056C7.36567 185.175 10.1407 184.829 12.5817 183.542Z" fill="#9698A0"/>
<path d="M533.815 194.674C538.855 194.583 543.865 194.018 548.893 193.763C550.046 193.289 550.271 195.366 549.16 195.3C544.059 195.597 538.94 195.567 533.846 196.028C533.84 195.688 533.827 195.014 533.815 194.674Z" fill="#9698A0"/>
<path d="M429.822 200.213C463.523 198.464 497.206 196.374 530.919 194.802L531.028 196.217C508.221 197.656 485.395 198.743 462.582 199.994C429.403 201.755 396.237 203.687 363.04 205.005C351.09 205.369 339.158 206.28 327.214 206.602L327.25 206.304C332.12 206.499 336.948 205.569 341.818 205.575C371.14 203.668 400.469 201.731 429.822 200.213Z" fill="#9698A0"/>
<path d="M534.143 204.13C548.152 203.383 562.166 202.66 576.181 201.932C581.251 202.071 586.316 202.49 591.386 202.842C572.319 203.456 553.271 204.452 534.216 205.29L534.143 204.13Z" fill="#9698A0"/>
<path d="M27.3372 202.527C28.418 203.571 29.4443 204.677 30.4522 205.8C34.2717 206.171 38.0668 206.839 41.8559 207.446C42.0623 207.549 42.4631 207.768 42.6696 207.877C38.9776 208.096 35.3222 207.367 31.6363 207.27C32.9661 208.971 34.5328 210.525 35.389 212.542C31.4845 210.355 29.9057 205.94 27.3372 202.527Z" fill="#9698A0"/>
<path d="M433.429 209.286C465.855 207.495 498.305 206.061 530.737 204.306C531.398 204.227 531.769 204.567 531.836 205.333C493.799 207.124 455.769 209.007 417.726 210.629C414.83 210.72 411.927 211.054 409.037 210.774C417.131 209.93 425.299 209.803 433.429 209.286Z" fill="#9698A0"/>
<path d="M534.331 208.412C543.434 208.078 552.53 207.555 561.638 207.3C571.718 208.442 581.853 209.08 591.987 209.493C572.787 209.79 553.599 210.61 534.404 211.041C534.368 210.161 534.344 209.286 534.331 208.412Z" fill="#9698A0"/>
<path d="M355.152 215.596C414.126 212.742 473.148 210.993 532.133 208.503C532.073 209.365 532.024 210.234 531.975 211.102C468.8 212.857 405.655 215.542 342.467 216.726C338.988 216.805 335.496 217.188 332.023 216.86C339.692 216.161 347.447 216.058 355.152 215.596Z" fill="#9698A0"/>
</svg>
